<svg xmlns="http://www.w3.org/2000/svg" xmlns:xlink="http://www.w3.org/1999/xlink" width="500" zoomAndPan="magnify" viewBox="0 0 375 374.999991" height="500" preserveAspectRatio="xMidYMid meet" version="1.0"><defs><g/></defs><g fill="#000000" fill-opacity="1"><g transform="translate(149.469988, 264.66958)"><g><path d="M 0.828125 0 L 0.828125 -1.453125 L 2.96875 -1.453125 L 2.96875 -6.03125 L 0.828125 -6.03125 L 0.828125 -7.484375 L 6.546875 -7.484375 L 6.546875 -6.03125 L 4.421875 -6.03125 L 4.421875 -1.453125 L 6.546875 -1.453125 L 6.546875 0 Z M 0.828125 0 "/></g></g></g><g fill="#000000" fill-opacity="1"><g transform="translate(164.585721, 264.66958)"><g><path d="M 0.828125 0 L 0.828125 -6.03125 L 2.28125 -7.484375 L 7.359375 -7.484375 L 8.8125 -6.03125 L 8.8125 0 L 7.359375 0 L 7.359375 -6.03125 L 2.28125 -6.03125 L 2.28125 0 Z M 0.828125 0 "/></g></g></g><g fill="#000000" fill-opacity="1"><g transform="translate(181.962322, 264.66958)"><g><path d="M 0.828125 0 L 0.828125 -6.03125 L 2.28125 -7.484375 L 8.78125 -7.484375 L 8.78125 -6.03125 L 2.28125 -6.03125 L 2.28125 -4.46875 L 7.09375 -4.46875 L 7.09375 -3.015625 L 2.28125 -3.015625 L 2.28125 0 Z M 0.828125 0 "/></g></g></g><g fill="#000000" fill-opacity="1"><g transform="translate(199.312937, 264.66958)"><g><path d="M 0.828125 0 L 0.828125 -6.03125 L 2.28125 -7.484375 L 8.015625 -7.484375 L 8.015625 -6.03125 L 2.28125 -6.03125 L 2.28125 0 Z M 0.828125 0 "/></g></g></g><g fill="#000000" fill-opacity="1"><g transform="translate(215.883939, 264.66958)"><g><path d="M 0.828125 0 L 0.828125 -6.03125 L 2.28125 -7.484375 L 7.359375 -7.484375 L 8.8125 -6.03125 L 8.8125 0 L 7.359375 0 L 7.359375 -3.015625 L 2.28125 -3.015625 L 2.28125 0 Z M 2.28125 -4.46875 L 7.359375 -4.46875 L 7.359375 -6.03125 L 2.28125 -6.03125 Z M 2.28125 -4.46875 "/></g></g></g><path fill="#00c45d" d="M 193.398438 134.523438 C 194.132812 134.542969 194.871094 134.558594 195.609375 134.574219 C 196.082031 134.585938 196.554688 134.597656 197.023438 134.613281 L 197.6875 134.625 C 198.238281 134.644531 198.789062 134.691406 199.335938 134.742188 L 200.210938 135.324219 C 200.070312 136.894531 199.652344 138.007812 198.84375 139.332031 C 197.609375 141.441406 196.464844 143.589844 195.347656 145.761719 L 194.824219 146.773438 C 194.464844 147.464844 194.109375 148.15625 193.753906 148.847656 C 192.875 150.558594 191.988281 152.265625 191.101562 153.972656 L 190.582031 154.980469 C 189.535156 156.996094 188.480469 159.007812 187.417969 161.015625 C 186.601562 162.5625 185.792969 164.117188 184.996094 165.679688 L 184.664062 166.328125 L 184.324219 166.992188 L 183.289062 169.015625 C 181.773438 171.972656 180.222656 174.910156 178.617188 177.820312 C 177.832031 179.238281 177.082031 180.667969 176.367188 182.125 C 175.277344 184.347656 174.113281 186.535156 172.941406 188.71875 L 172.664062 189.242188 C 171.539062 191.347656 170.382812 193.417969 169.125 195.445312 C 168.71875 196.253906 168.585938 196.851562 168.535156 197.75 C 168.621094 198.988281 169.058594 199.851562 169.652344 200.925781 C 169.902344 201.464844 169.902344 201.464844 169.957031 202.449219 C 169.246094 204.609375 167.828125 206.246094 166.203125 207.800781 C 163.917969 209.765625 161.179688 211.011719 158.242188 211.664062 C 156.511719 211.96875 154.828125 211.992188 153.070312 211.980469 L 152.179688 211.980469 C 151.242188 211.980469 150.308594 211.976562 149.375 211.972656 C 148.738281 211.96875 148.101562 211.96875 147.464844 211.96875 C 145.910156 211.964844 144.351562 211.960938 142.796875 211.953125 L 142.507812 211.078125 C 142.753906 210.417969 143.03125 209.773438 143.339844 209.140625 L 143.632812 208.523438 C 143.964844 207.828125 144.300781 207.132812 144.636719 206.4375 L 145.355469 204.933594 C 148.917969 197.53125 152.628906 190.203125 156.320312 182.863281 L 156.59375 182.316406 L 157.132812 181.246094 C 157.722656 180.070312 158.3125 178.898438 158.898438 177.722656 L 159.496094 176.515625 C 160.328125 174.851562 161.195312 173.207031 162.070312 171.566406 C 163.265625 169.316406 164.394531 167.035156 165.53125 164.753906 C 166.363281 163.078125 167.199219 161.402344 168.035156 159.726562 L 168.777344 158.238281 C 170.347656 155.074219 171.960938 151.933594 173.613281 148.808594 C 174.164062 147.765625 174.710938 146.71875 175.25 145.667969 C 179.304688 137.78125 179.304688 137.78125 181.289062 136.261719 C 183.253906 135.027344 185.125 134.648438 187.414062 134.496094 C 189.410156 134.421875 191.402344 134.464844 193.398438 134.523438 " fill-opacity="1" fill-rule="nonzero"/><path fill="#00dcba" d="M 220.863281 136.746094 L 221.632812 136.75 C 223.441406 136.761719 225.226562 136.84375 227.019531 137.074219 L 227.019531 137.65625 L 226.519531 137.914062 L 225.835938 138.277344 L 225.171875 138.625 C 223.257812 139.835938 222.011719 141.1875 220.882812 143.136719 L 220.480469 143.816406 C 218.617188 146.972656 216.847656 150.183594 215.070312 153.390625 C 214.652344 154.148438 214.230469 154.910156 213.808594 155.667969 C 213.566406 156.097656 213.328125 156.53125 213.089844 156.960938 L 212.765625 157.542969 L 212.460938 158.101562 C 212.257812 158.457031 212.046875 158.804688 211.820312 159.148438 C 211.4375 159.722656 211.4375 159.722656 210.992188 160.675781 L 211.023438 161.765625 C 211.046875 163.121094 210.628906 164.054688 210.015625 165.246094 L 209.703125 165.882812 C 209.359375 166.570312 209.011719 167.253906 208.664062 167.9375 C 208.425781 168.417969 208.183594 168.898438 207.945312 169.375 C 207.445312 170.378906 206.941406 171.378906 206.433594 172.375 C 205.785156 173.65625 205.140625 174.941406 204.5 176.230469 C 204.003906 177.21875 203.507812 178.207031 203.011719 179.191406 C 202.773438 179.664062 202.535156 180.140625 202.296875 180.613281 C 201.96875 181.273438 201.632812 181.933594 201.296875 182.589844 L 201.003906 183.1875 C 200.757812 183.660156 200.488281 184.113281 200.210938 184.566406 L 199.335938 184.855469 L 199.078125 184.300781 C 198.691406 183.472656 198.304688 182.644531 197.914062 181.816406 L 197.507812 180.9375 L 197.117188 180.105469 L 196.753906 179.332031 L 196.421875 178.738281 L 195.839844 178.445312 L 195.621094 179.042969 C 195.179688 180.085938 194.632812 181.054688 194.070312 182.035156 L 192.996094 183.921875 C 192.640625 184.550781 192.292969 185.183594 191.949219 185.816406 C 190.769531 187.96875 189.570312 189.972656 187.96875 191.851562 L 187.558594 192.378906 C 185.832031 194.535156 183.621094 196.242188 181.113281 197.394531 C 178.507812 198.410156 175.863281 198.324219 173.105469 198.257812 L 172.816406 197.675781 C 173.121094 196.996094 173.453125 196.332031 173.8125 195.679688 L 174.136719 195.066406 C 174.488281 194.40625 174.84375 193.746094 175.203125 193.089844 L 175.933594 191.71875 C 177.378906 189.023438 178.839844 186.332031 180.3125 183.648438 C 181.558594 181.382812 182.746094 179.085938 183.933594 176.789062 C 185.097656 174.539062 186.304688 172.308594 187.527344 170.085938 C 188.625 168.089844 189.675781 166.070312 190.71875 164.042969 C 192.410156 160.769531 194.191406 157.558594 196.027344 154.367188 C 196.351562 153.800781 196.671875 153.230469 196.988281 152.660156 C 199.617188 147.988281 202.984375 142.808594 207.5625 139.839844 C 211.78125 137.566406 216.109375 136.722656 220.863281 136.746094 " fill-opacity="1" fill-rule="nonzero"/><path fill="#003229" d="M 213.613281 169.125 C 214.515625 169.949219 215.046875 170.695312 215.558594 171.800781 L 215.980469 172.699219 L 216.421875 173.65625 C 217.496094 175.949219 218.589844 178.21875 219.789062 180.449219 C 220.878906 182.484375 221.890625 184.546875 222.871094 186.636719 C 223.53125 188.050781 224.210938 189.453125 224.90625 190.847656 L 225.1875 191.402344 L 225.792969 192.609375 C 227.925781 196.832031 230.039062 201.054688 232.066406 205.328125 L 232.429688 206.097656 L 232.78125 206.839844 C 233.273438 207.855469 233.800781 208.855469 234.332031 209.851562 C 234.597656 210.496094 234.597656 210.496094 234.597656 211.664062 C 219.5 212.535156 219.5 212.535156 215.21875 210.441406 C 213.25 209.359375 211.941406 208.363281 210.761719 206.441406 C 209.332031 203.9375 208.007812 201.394531 206.730469 198.804688 C 206.453125 198.246094 206.175781 197.691406 205.898438 197.132812 C 205.71875 196.769531 205.539062 196.402344 205.363281 196.035156 C 204.949219 195.179688 204.511719 194.363281 204.007812 193.554688 C 203.480469 192.6875 203.089844 191.957031 202.832031 190.976562 C 203.046875 189.574219 203.636719 188.4375 204.289062 187.1875 C 204.464844 186.828125 204.636719 186.464844 204.808594 186.105469 C 205.363281 184.9375 205.945312 183.785156 206.53125 182.636719 L 207.15625 181.394531 C 209.238281 177.269531 211.378906 173.171875 213.613281 169.125 M 155.914062 183.984375 L 156.203125 184.855469 L 157.078125 184.566406 C 157.65625 184.539062 158.230469 184.53125 158.808594 184.53125 L 159.886719 184.53125 L 161.050781 184.539062 L 162.242188 184.539062 C 163.289062 184.539062 164.332031 184.542969 165.378906 184.546875 C 166.445312 184.546875 167.511719 184.550781 168.578125 184.550781 C 170.671875 184.554688 172.761719 184.558594 174.855469 184.566406 C 174.488281 185.695312 174.09375 186.722656 173.523438 187.765625 L 173.082031 188.570312 L 172.613281 189.410156 L 172.140625 190.277344 C 171.484375 191.476562 170.824219 192.667969 170.089844 193.820312 C 169.257812 195.132812 168.613281 196.171875 168.535156 197.75 C 168.621094 198.988281 169.058594 199.851562 169.652344 200.925781 C 169.902344 201.464844 169.902344 201.464844 169.957031 202.449219 C 169.246094 204.609375 167.828125 206.246094 166.203125 207.800781 C 163.917969 209.765625 161.179688 211.011719 158.242188 211.664062 C 156.511719 211.96875 154.828125 211.992188 153.070312 211.980469 L 152.179688 211.980469 C 151.242188 211.980469 150.308594 211.976562 149.375 211.972656 C 148.738281 211.96875 148.101562 211.96875 147.464844 211.96875 C 145.910156 211.964844 144.351562 211.960938 142.796875 211.953125 L 142.507812 211.078125 C 142.78125 210.363281 143.085938 209.664062 143.421875 208.976562 L 143.734375 208.320312 C 144.082031 207.59375 144.433594 206.871094 144.785156 206.144531 L 145.515625 204.617188 C 147.6875 200.101562 149.921875 195.621094 152.160156 191.140625 L 152.675781 190.109375 C 153.160156 189.140625 153.644531 188.171875 154.128906 187.207031 L 154.574219 186.320312 L 154.980469 185.511719 L 155.335938 184.804688 C 155.621094 184.273438 155.621094 184.273438 155.914062 183.984375 " fill-opacity="1" fill-rule="nonzero"/><path fill="#00c6aa" d="M 220.863281 136.746094 L 221.632812 136.75 C 223.441406 136.761719 225.226562 136.84375 227.019531 137.074219 L 227.019531 137.65625 L 226.519531 137.914062 L 225.835938 138.277344 L 225.171875 138.625 C 223.257812 139.835938 222.011719 141.1875 220.882812 143.136719 L 220.480469 143.816406 C 218.617188 146.972656 216.847656 150.183594 215.070312 153.390625 C 214.652344 154.148438 214.230469 154.910156 213.808594 155.667969 C 213.566406 156.097656 213.328125 156.53125 213.089844 156.960938 L 212.765625 157.542969 L 212.460938 158.101562 C 212.257812 158.457031 212.046875 158.804688 211.820312 159.148438 C 211.4375 159.722656 211.4375 159.722656 210.992188 160.675781 L 211.023438 161.765625 C 211.046875 163.121094 210.628906 164.054688 210.015625 165.246094 L 209.703125 165.882812 C 209.359375 166.570312 209.011719 167.253906 208.664062 167.9375 C 208.425781 168.417969 208.183594 168.898438 207.945312 169.375 C 207.445312 170.378906 206.941406 171.378906 206.433594 172.375 C 205.785156 173.65625 205.140625 174.941406 204.5 176.230469 C 204.003906 177.21875 203.507812 178.207031 203.011719 179.191406 C 202.773438 179.664062 202.535156 180.140625 202.296875 180.613281 C 201.96875 181.273438 201.632812 181.933594 201.296875 182.589844 L 201.003906 183.1875 C 200.757812 183.660156 200.488281 184.113281 200.210938 184.566406 L 199.335938 184.855469 C 198.828125 183.882812 198.332031 182.90625 197.839844 181.925781 L 197.40625 181.09375 C 197.019531 180.3125 196.679688 179.570312 196.421875 178.738281 C 196.601562 177.308594 197.164062 176.328125 197.96875 175.152344 C 198.941406 173.679688 199.75 172.175781 200.5 170.582031 L 201.082031 170.582031 L 201.242188 170.046875 C 201.640625 168.789062 202.003906 167.828125 202.832031 166.792969 C 203.039062 166.304688 203.246094 165.816406 203.453125 165.324219 C 203.960938 164.175781 204.589844 163.089844 205.199219 161.992188 C 205.796875 160.894531 206.261719 159.835938 206.621094 158.636719 L 204.582031 158.636719 L 204.582031 157.761719 L 205.164062 157.761719 L 205.164062 157.179688 L 204.660156 157.183594 C 203.910156 157.1875 203.160156 157.191406 202.414062 157.195312 L 201.621094 157.203125 L 200.867188 157.207031 L 200.167969 157.210938 L 199.625 157.179688 L 199.335938 156.886719 C 199.324219 156.402344 199.324219 155.914062 199.335938 155.429688 L 197.296875 155.429688 L 197.003906 154.554688 L 196.421875 154.265625 L 196.203125 155.027344 C 195.816406 156.066406 195.3125 156.863281 194.671875 157.761719 L 194.378906 157.179688 C 194.605469 156.644531 194.605469 156.644531 194.972656 155.988281 L 195.390625 155.246094 L 195.855469 154.445312 L 196.332031 153.621094 C 199.246094 148.664062 202.628906 143.039062 207.5625 139.839844 C 211.78125 137.566406 216.109375 136.722656 220.863281 136.746094 " fill-opacity="1" fill-rule="nonzero"/><path fill="#020202" d="M 122.398438 222.441406 L 126.769531 222.441406 C 127.824219 223.0625 127.824219 223.0625 128.519531 223.898438 L 128.90625 224.34375 C 129.273438 224.769531 129.625 225.207031 129.976562 225.648438 C 130.324219 226.042969 130.679688 226.4375 131.03125 226.832031 L 131.507812 227.390625 C 132.089844 228.066406 132.691406 228.722656 133.289062 229.378906 C 134.191406 230.378906 135.054688 231.394531 135.894531 232.441406 C 137.175781 234.023438 138.546875 235.511719 139.9375 237 C 140.78125 237.90625 141.59375 238.835938 142.390625 239.78125 C 142.835938 240.289062 142.835938 240.289062 143.671875 240.796875 L 143.671875 240.113281 C 143.664062 237.992188 143.660156 235.871094 143.65625 233.746094 C 143.65625 232.65625 143.652344 231.566406 143.648438 230.472656 C 143.648438 229.421875 143.644531 228.367188 143.644531 227.316406 C 143.644531 226.914062 143.644531 226.511719 143.640625 226.109375 C 143.640625 225.546875 143.640625 224.988281 143.640625 224.425781 L 143.636719 223.453125 L 143.671875 222.734375 L 143.964844 222.441406 C 144.375 222.417969 144.789062 222.410156 145.203125 222.414062 L 145.957031 222.417969 L 146.75 222.425781 L 147.546875 222.429688 C 148.199219 222.433594 148.847656 222.4375 149.5 222.441406 C 149.820312 236.511719 149.820312 236.511719 149.828125 242.636719 L 149.832031 243.800781 C 149.828125 246.113281 149.714844 248.398438 149.5 250.703125 C 148.800781 250.742188 148.105469 250.773438 147.40625 250.796875 L 146.8125 250.832031 C 146.226562 250.847656 146.226562 250.847656 145.128906 250.703125 C 144.339844 250.046875 144.339844 250.046875 143.671875 249.246094 C 143.460938 249.039062 143.246094 248.828125 143.027344 248.613281 C 141.8125 247.414062 140.648438 246.195312 139.535156 244.902344 C 138.023438 243.152344 136.453125 241.453125 134.894531 239.742188 C 133.511719 238.222656 132.15625 236.679688 130.808594 235.128906 L 130.175781 234.40625 L 129.597656 233.742188 C 129.132812 233.199219 129.132812 233.199219 128.519531 232.929688 L 128.226562 250.703125 L 122.398438 250.703125 Z M 239.261719 222.152344 C 239.648438 222.121094 240.039062 222.113281 240.425781 222.113281 L 241.136719 222.109375 L 241.882812 222.113281 L 242.628906 222.109375 L 243.339844 222.113281 L 243.996094 222.113281 L 244.507812 222.152344 L 244.796875 222.441406 C 244.828125 222.972656 244.839844 223.503906 244.84375 224.035156 L 244.851562 225.066406 L 244.859375 226.191406 C 244.867188 226.773438 244.871094 227.355469 244.878906 227.9375 C 244.894531 229.375 244.90625 230.8125 244.914062 232.25 C 244.917969 233.054688 244.925781 233.859375 244.9375 234.664062 C 244.945312 235.421875 244.949219 236.179688 244.953125 236.9375 C 244.984375 239.199219 245.136719 241.355469 246.261719 243.371094 C 246.734375 244.019531 247.257812 244.496094 247.960938 244.886719 C 249.253906 245.425781 250.386719 245.609375 251.792969 245.460938 C 253.105469 245.167969 254.15625 244.773438 255.253906 243.984375 C 256.109375 242.796875 256.457031 241.644531 256.746094 240.214844 C 256.855469 238.824219 256.84375 237.445312 256.820312 236.054688 C 256.820312 235.660156 256.816406 235.265625 256.816406 234.871094 C 256.8125 233.847656 256.800781 232.820312 256.789062 231.792969 C 256.773438 230.140625 256.761719 228.488281 256.753906 226.839844 C 256.75 226.261719 256.742188 225.6875 256.734375 225.109375 L 256.726562 224.0625 L 256.71875 223.132812 L 256.746094 222.441406 L 257.039062 222.152344 C 257.449219 222.125 257.855469 222.109375 258.265625 222.113281 L 259.019531 222.109375 L 259.804688 222.113281 L 260.59375 222.109375 L 261.34375 222.113281 L 262.039062 222.113281 L 262.574219 222.152344 L 262.867188 222.441406 C 262.898438 222.996094 262.910156 223.550781 262.914062 224.105469 L 262.921875 225.183594 L 262.925781 226.363281 L 262.929688 227.570312 C 262.933594 228.417969 262.933594 229.265625 262.9375 230.113281 C 262.9375 231.191406 262.945312 232.269531 262.953125 233.347656 C 262.957031 234.179688 262.960938 235.015625 262.960938 235.847656 C 262.960938 236.4375 262.96875 237.023438 262.972656 237.609375 C 262.964844 240.46875 262.617188 243.082031 261.371094 245.679688 C 260.367188 247.34375 258.9375 248.617188 257.285156 249.632812 C 256.722656 249.921875 256.171875 250.183594 255.582031 250.414062 L 254.804688 250.726562 C 253.5625 251.070312 252.417969 251.09375 251.136719 251.085938 L 250.390625 251.082031 C 248.613281 251.046875 246.992188 250.933594 245.378906 250.121094 C 244.53125 249.605469 243.792969 249.027344 243.050781 248.375 L 242.503906 247.910156 C 241.109375 246.636719 240.1875 245.199219 239.550781 243.421875 C 238.910156 241.046875 238.886719 238.726562 238.902344 236.28125 L 238.902344 235.082031 C 238.902344 234.25 238.90625 233.417969 238.910156 232.585938 C 238.914062 231.515625 238.914062 230.449219 238.914062 229.382812 C 238.914062 228.558594 238.917969 227.734375 238.917969 226.914062 C 238.921875 226.328125 238.921875 225.742188 238.921875 225.15625 L 238.925781 224.085938 L 238.929688 223.144531 L 238.96875 222.441406 Z M 195.328125 222.058594 L 195.988281 222.027344 C 197.035156 222.207031 197.636719 222.65625 198.460938 223.316406 C 198.945312 224.035156 198.945312 224.035156 199.351562 224.917969 L 199.597656 225.4375 C 199.90625 226.089844 200.203125 226.742188 200.5 227.394531 C 200.777344 227.992188 201.054688 228.585938 201.328125 229.179688 C 201.804688 230.207031 202.28125 231.234375 202.753906 232.257812 C 203.863281 234.65625 205 237.03125 206.15625 239.402344 C 207.417969 241.988281 208.664062 244.578125 209.789062 247.226562 L 210.078125 247.898438 C 210.5 248.914062 210.699219 249.585938 210.699219 250.703125 L 204.871094 250.703125 C 204.191406 249.382812 203.523438 248.074219 202.960938 246.699219 L 202.730469 246.140625 C 202.511719 245.605469 202.296875 245.066406 202.082031 244.53125 L 201.667969 243.710938 C 200.722656 243.398438 200.039062 243.386719 199.050781 243.390625 L 198.023438 243.394531 L 196.949219 243.402344 L 195.867188 243.40625 C 194.980469 243.410156 194.097656 243.414062 193.214844 243.421875 L 192.921875 242.835938 C 193.246094 242.101562 193.246094 242.101562 193.726562 241.234375 L 194.195312 240.371094 C 194.671875 239.632812 194.671875 239.632812 195.546875 239.050781 C 196.523438 238.992188 196.523438 238.992188 197.640625 239.011719 L 198.765625 239.03125 L 199.625 239.050781 C 199.121094 237.859375 198.609375 236.667969 198.097656 235.480469 L 197.664062 234.457031 L 197.234375 233.472656 L 196.847656 232.566406 C 196.410156 231.746094 195.945312 231.214844 195.253906 230.601562 L 195.054688 231.289062 C 194.550781 232.6875 193.886719 233.976562 193.210938 235.296875 L 192.324219 237.054688 C 191.859375 237.964844 191.398438 238.878906 190.933594 239.792969 C 189.335938 242.933594 187.761719 246.042969 186.539062 249.351562 C 186.222656 250.121094 186.222656 250.121094 185.636719 250.703125 C 185.0625 250.769531 185.0625 250.769531 184.371094 250.761719 L 183.617188 250.753906 L 182.832031 250.742188 L 182.039062 250.734375 C 181.394531 250.726562 180.746094 250.714844 180.101562 250.703125 L 179.808594 250.121094 C 180.050781 249.460938 180.050781 249.460938 180.445312 248.617188 L 180.894531 247.660156 L 181.394531 246.605469 C 181.566406 246.242188 181.738281 245.875 181.910156 245.511719 C 182.847656 243.519531 183.800781 241.539062 184.765625 239.558594 L 185.058594 238.957031 C 185.453125 238.148438 185.847656 237.339844 186.246094 236.53125 C 187.292969 234.390625 188.320312 232.246094 189.273438 230.0625 L 189.511719 229.511719 C 189.878906 228.667969 190.242188 227.820312 190.597656 226.96875 C 191.363281 225.183594 192.136719 223.828125 193.507812 222.441406 C 194.167969 222.113281 194.589844 222.085938 195.328125 222.058594 " fill-opacity="1" fill-rule="nonzero"/><path fill="#00eb60" d="M 193.398438 134.523438 C 194.132812 134.542969 194.871094 134.558594 195.609375 134.574219 C 196.082031 134.585938 196.554688 134.597656 197.023438 134.613281 L 197.6875 134.625 C 198.238281 134.644531 198.789062 134.691406 199.335938 134.742188 L 200.210938 135.324219 C 200.070312 136.894531 199.652344 138.007812 198.84375 139.332031 C 197.566406 141.511719 196.394531 143.734375 195.238281 145.980469 L 194.703125 147.007812 C 193.953125 148.453125 193.207031 149.894531 192.507812 151.359375 L 192.199219 151.984375 C 191.945312 152.507812 191.695312 153.03125 191.449219 153.554688 L 190.882812 154.265625 C 189.796875 154.515625 189.796875 154.515625 188.84375 154.554688 L 188.84375 155.136719 L 188.261719 155.136719 L 188.035156 154.511719 L 187.734375 153.699219 L 187.433594 152.890625 L 187.09375 152.226562 L 186.222656 151.933594 L 185.929688 152.515625 L 185.929688 151.640625 L 183.597656 151.640625 L 183.597656 152.515625 L 183.015625 152.226562 L 183.304688 151.640625 L 174.273438 151.640625 L 173.980469 150.769531 L 172.816406 151.058594 C 173.210938 149.769531 173.722656 148.605469 174.339844 147.40625 L 174.617188 146.867188 C 174.808594 146.492188 175.003906 146.117188 175.199219 145.746094 C 175.488281 145.183594 175.777344 144.625 176.066406 144.0625 C 179.300781 137.785156 179.300781 137.785156 181.289062 136.261719 C 183.253906 135.027344 185.125 134.648438 187.414062 134.496094 C 189.410156 134.421875 191.402344 134.464844 193.398438 134.523438 " fill-opacity="1" fill-rule="nonzero"/><path fill="#020202" d="M 102.890625 221.96875 C 104.199219 222.175781 104.757812 222.488281 105.785156 223.316406 C 106.230469 224.027344 106.582031 224.671875 106.921875 225.429688 L 107.21875 226.050781 C 107.421875 226.480469 107.625 226.910156 107.824219 227.339844 C 108.101562 227.941406 108.382812 228.539062 108.671875 229.136719 C 109.226562 230.300781 109.773438 231.472656 110.320312 232.640625 C 110.523438 233.066406 110.722656 233.492188 110.921875 233.917969 C 111.335938 234.796875 111.746094 235.679688 112.160156 236.558594 C 112.777344 237.875 113.394531 239.191406 114.011719 240.507812 L 115.460938 243.589844 C 116.027344 244.796875 116.589844 246 117.152344 247.207031 L 117.53125 248.019531 L 117.859375 248.726562 L 118.132812 249.320312 C 118.316406 249.832031 118.316406 249.832031 118.316406 250.703125 C 117.730469 250.761719 117.140625 250.816406 116.550781 250.867188 L 115.558594 250.960938 C 113.570312 251.027344 113.570312 251.027344 112.488281 250.703125 C 111.925781 250.039062 111.609375 249.300781 111.269531 248.5 L 110.988281 247.890625 C 110.804688 247.484375 110.621094 247.074219 110.441406 246.664062 C 110.058594 245.824219 109.636719 245.007812 109.207031 244.191406 C 108.992188 243.710938 108.992188 243.710938 108.992188 243.128906 L 108.355469 243.347656 L 107.535156 243.421875 C 107.042969 243.039062 106.554688 242.652344 106.078125 242.253906 C 105.230469 241.941406 105.230469 241.941406 104.328125 241.964844 C 103.375 242.347656 102.726562 242.691406 101.996094 243.421875 L 101.125 243.421875 C 101.289062 242.292969 101.605469 241.527344 102.234375 240.578125 C 102.378906 240.351562 102.527344 240.125 102.675781 239.890625 C 103.164062 239.339844 103.164062 239.339844 103.679688 239.164062 C 104.417969 239.035156 105.109375 239.023438 105.859375 239.03125 L 106.648438 239.039062 L 107.242188 239.050781 C 106.683594 237.851562 106.117188 236.65625 105.550781 235.460938 L 105.066406 234.433594 L 104.597656 233.445312 L 104.167969 232.535156 C 103.789062 231.847656 103.457031 231.398438 102.871094 230.890625 L 102.578125 231.523438 C 100.804688 235.367188 99.023438 239.203125 97.1875 243.019531 L 96.765625 243.902344 C 95.164062 247.226562 95.164062 247.226562 94.445312 248.617188 C 94.097656 249.28125 94.097656 249.28125 93.777344 250.152344 L 93.253906 250.703125 C 92.308594 250.878906 91.390625 250.839844 90.433594 250.796875 L 89.644531 250.773438 C 89 250.757812 88.359375 250.734375 87.71875 250.703125 C 87.882812 249.28125 88.335938 248.117188 88.957031 246.839844 L 89.25 246.222656 C 89.570312 245.554688 89.890625 244.886719 90.214844 244.222656 C 90.4375 243.753906 90.660156 243.289062 90.882812 242.820312 C 91.34375 241.851562 91.808594 240.882812 92.269531 239.917969 C 93.246094 237.875 94.21875 235.824219 95.183594 233.777344 C 95.648438 232.789062 96.117188 231.800781 96.582031 230.816406 L 96.84375 230.257812 C 97.304688 229.273438 97.75 228.28125 98.179688 227.28125 L 98.453125 226.640625 C 98.625 226.234375 98.792969 225.832031 98.960938 225.425781 C 99.40625 224.378906 99.859375 223.539062 100.667969 222.734375 C 101.394531 222.226562 102.007812 222.03125 102.890625 221.96875 M 230.226562 222.734375 C 231.363281 223.214844 232.460938 223.710938 233.433594 224.480469 L 233.757812 225.015625 L 233.722656 225.648438 C 233.273438 226.253906 232.773438 226.816406 232.230469 227.339844 L 231.800781 227.796875 C 231.371094 228.21875 231.371094 228.21875 230.519531 228.851562 C 229.785156 228.839844 229.785156 228.839844 229.0625 228.5625 L 228.246094 228.277344 L 227.386719 227.960938 C 225.855469 227.445312 224.546875 227.144531 222.941406 227.394531 C 222.128906 227.597656 221.640625 227.832031 220.902344 228.269531 C 220.414062 228.921875 220.414062 228.921875 220.316406 229.726562 C 220.292969 230.625 220.292969 230.625 220.609375 231.472656 C 221.589844 232.386719 222.519531 232.882812 223.773438 233.328125 L 224.761719 233.691406 C 225.4375 233.9375 226.113281 234.179688 226.789062 234.421875 C 229.144531 235.289062 231.394531 236.253906 233.105469 238.15625 C 234.007812 239.460938 234.523438 240.402344 234.691406 241.96875 C 234.753906 243.804688 234.636719 245.316406 233.78125 246.957031 C 233.269531 247.75 232.691406 248.34375 231.976562 248.957031 L 231.320312 249.574219 C 229.863281 250.566406 228.164062 251 226.4375 251.285156 C 223.4375 251.5 220.457031 251.222656 217.671875 250.027344 C 216.035156 249.175781 214.667969 248.171875 213.324219 246.917969 C 213.738281 245.953125 214.230469 245.378906 215.019531 244.695312 L 215.605469 244.171875 C 216.304688 243.664062 216.851562 243.335938 217.695312 243.128906 C 218.320312 243.421875 218.320312 243.421875 218.933594 243.914062 C 220.472656 245.023438 221.847656 245.640625 223.746094 245.832031 C 225.003906 245.875 226.144531 245.835938 227.332031 245.386719 C 228.175781 244.945312 228.175781 244.945312 228.625 244.367188 C 228.84375 243.371094 228.742188 242.65625 228.476562 241.671875 C 226.636719 239.960938 224.207031 239.253906 221.851562 238.519531 C 219.644531 237.824219 217.746094 237.03125 216.066406 235.398438 C 215.308594 234.539062 214.835938 233.722656 214.488281 232.640625 C 214.300781 230.789062 214.234375 228.902344 214.734375 227.097656 C 215.402344 225.636719 216.316406 224.453125 217.574219 223.453125 C 221.382812 221.128906 226.113281 221.445312 230.226562 222.734375 M 283.703125 222.671875 C 286.046875 223.804688 286.046875 223.804688 286.761719 224.480469 C 286.96875 225.109375 286.96875 225.109375 287.054688 225.648438 C 286.5625 226.144531 286.066406 226.636719 285.5625 227.121094 L 285.144531 227.550781 C 284.722656 227.953125 284.722656 227.953125 283.847656 228.5625 C 282.742188 228.527344 282.0625 228.253906 281.042969 227.816406 C 279.503906 227.210938 277.902344 227.222656 276.273438 227.394531 C 275.476562 227.636719 275.476562 227.636719 274.816406 227.976562 C 274.308594 228.65625 274.230469 229.160156 274.105469 230 C 274.164062 230.910156 274.164062 230.910156 274.738281 231.585938 C 276.003906 232.785156 277.777344 233.21875 279.386719 233.789062 C 285.167969 235.847656 285.167969 235.847656 286.746094 237.660156 C 287.566406 238.785156 288.191406 239.957031 288.457031 241.332031 C 288.605469 243.0625 288.472656 244.78125 287.785156 246.386719 C 286.957031 247.832031 285.789062 248.890625 284.433594 249.832031 C 282.3125 250.929688 280.101562 251.308594 277.730469 251.285156 C 274.917969 251.121094 272.335938 250.632812 269.859375 249.246094 C 268.839844 248.523438 267.882812 247.75 266.945312 246.917969 C 268.140625 245.492188 269.402344 244.132812 270.734375 242.835938 L 271.4375 243.261719 L 272.375 243.820312 L 273.296875 244.375 C 274.957031 245.265625 276.300781 245.546875 278.183594 245.550781 L 279.316406 245.566406 C 280.347656 245.519531 280.347656 245.519531 281.179688 245.070312 C 281.875 244.589844 281.875 244.589844 282.390625 243.710938 C 282.539062 242.863281 282.539062 242.863281 282.390625 241.964844 C 281.949219 241.191406 281.949219 241.191406 281.226562 240.507812 C 280.484375 240.152344 279.8125 239.871094 279.039062 239.613281 L 278.414062 239.390625 C 277.480469 239.058594 276.539062 238.753906 275.59375 238.46875 C 273.359375 237.804688 271.589844 236.84375 269.859375 235.261719 C 269.152344 234.359375 268.765625 233.4375 268.402344 232.347656 C 268.261719 230.386719 268.113281 228.347656 268.894531 226.503906 C 269.609375 225.179688 270.382812 224.042969 271.652344 223.1875 C 275.089844 221.1875 280.046875 221.203125 283.703125 222.671875 M 173.363281 222.113281 L 174.527344 222.113281 C 175.632812 222.109375 176.738281 222.109375 177.839844 222.113281 L 178.863281 222.109375 L 179.796875 222.113281 L 180.617188 222.113281 C 181.265625 222.152344 181.265625 222.152344 181.847656 222.441406 L 181.847656 227.976562 L 171.359375 228.269531 L 171.066406 250.703125 L 165.53125 250.703125 L 165.238281 250.414062 C 165.210938 249.714844 165.199219 249.019531 165.203125 248.320312 L 165.203125 247.65625 C 165.203125 246.929688 165.207031 246.203125 165.210938 245.476562 L 165.210938 243.96875 C 165.210938 242.644531 165.214844 241.320312 165.21875 239.992188 C 165.21875 238.640625 165.222656 237.289062 165.222656 235.9375 C 165.226562 233.285156 165.230469 230.632812 165.238281 227.976562 L 164.28125 227.984375 C 163.109375 227.988281 161.941406 227.992188 160.773438 227.996094 C 160.265625 227.996094 159.757812 227.996094 159.25 228 C 158.523438 228.003906 157.796875 228.003906 157.070312 228.007812 L 156.378906 228.011719 C 155.835938 228.011719 155.289062 227.996094 154.746094 227.976562 L 154.453125 227.6875 C 154.417969 226.917969 154.402344 226.144531 154.402344 225.375 L 154.390625 224.71875 C 154.386719 224.152344 154.417969 223.589844 154.457031 223.023438 L 155.039062 222.441406 C 155.691406 222.347656 155.691406 222.347656 156.539062 222.320312 L 157.546875 222.289062 L 158.679688 222.261719 L 159.261719 222.242188 C 163.960938 222.113281 168.664062 222.121094 173.363281 222.113281 " fill-opacity="1" fill-rule="nonzero"/><path fill="#008e5c" d="M 183.597656 166.5 L 184.179688 166.792969 C 183.714844 168.457031 182.90625 169.867188 182.066406 171.363281 C 180.636719 173.949219 179.253906 176.550781 177.898438 179.175781 L 177.371094 180.191406 C 176.621094 181.644531 175.878906 183.101562 175.148438 184.566406 L 156.203125 184.855469 L 155.914062 183.691406 C 156.195312 182.941406 156.519531 182.207031 156.878906 181.488281 L 157.195312 180.832031 C 158.335938 178.503906 159.550781 176.214844 160.773438 173.929688 C 161.453125 172.652344 162.125 171.371094 162.796875 170.089844 L 163.539062 168.683594 L 164.070312 167.667969 L 164.363281 168.832031 L 163.78125 168.832031 L 163.488281 170.582031 L 164.070312 170.269531 C 165.078125 169.957031 165.695312 170.054688 166.714844 170.226562 C 167.429688 170.304688 168.035156 170.136719 168.734375 169.996094 L 169.609375 170.582031 C 170.371094 170.6875 170.371094 170.6875 171.226562 170.699219 L 172.171875 170.734375 L 173.160156 170.761719 L 174.160156 170.796875 C 174.972656 170.824219 175.789062 170.847656 176.605469 170.871094 L 176.605469 171.746094 L 181.265625 171.746094 L 181.558594 169.996094 L 182.140625 169.125 L 182.722656 169.125 Z M 183.597656 166.5 " fill-opacity="1" fill-rule="nonzero"/><path fill="#6cffb8" d="M 194.964844 177.863281 L 195.546875 178.445312 L 195.257812 178.863281 L 194.871094 179.449219 L 194.492188 180.011719 C 194.136719 180.691406 193.910156 181.292969 193.679688 182.019531 C 193.246094 183.371094 192.667969 184.59375 191.996094 185.839844 L 191.648438 186.488281 C 190.671875 188.28125 189.542969 189.96875 188.261719 191.558594 L 187.765625 192.1875 C 185.773438 194.597656 183.3125 196.539062 180.390625 197.675781 C 178.019531 198.4375 175.566406 198.320312 173.105469 198.257812 L 172.816406 197.675781 C 173.128906 196.984375 173.46875 196.304688 173.832031 195.636719 L 174.160156 195.015625 C 174.519531 194.347656 174.878906 193.679688 175.238281 193.015625 L 175.96875 191.652344 C 176.558594 190.550781 177.152344 189.449219 177.746094 188.351562 C 178.023438 187.835938 178.304688 187.320312 178.582031 186.804688 C 178.984375 186.0625 179.386719 185.324219 179.789062 184.582031 L 180.128906 183.964844 C 180.621094 183.078125 181.097656 182.335938 181.847656 181.652344 C 182.148438 181.171875 182.4375 180.683594 182.722656 180.195312 L 183.597656 179.320312 C 184.304688 179.339844 184.304688 179.339844 185.144531 179.449219 C 186.289062 179.597656 187.140625 179.546875 188.261719 179.320312 C 188.828125 179.34375 189.390625 179.386719 189.953125 179.449219 L 190.816406 179.539062 L 191.464844 179.613281 L 191.757812 179.03125 L 192.921875 179.320312 L 192.921875 178.738281 L 192.339844 178.445312 C 193.214844 178.445312 193.214844 178.445312 193.796875 178.738281 L 193.796875 178.15625 C 194.34375 177.972656 194.34375 177.972656 194.964844 177.863281 " fill-opacity="1" fill-rule="nonzero"/><path fill="#00b49a" d="M 220.863281 136.746094 L 221.632812 136.75 C 223.441406 136.761719 225.226562 136.84375 227.019531 137.074219 L 227.019531 137.65625 L 226.519531 137.914062 L 225.835938 138.277344 L 225.171875 138.625 C 223.195312 139.875 221.957031 141.285156 220.792969 143.300781 L 220.382812 143.988281 C 219.0625 146.226562 217.785156 148.492188 216.53125 150.769531 L 216.238281 150.769531 L 216.238281 148.730469 L 215.277344 148.75 C 214.859375 148.753906 214.4375 148.761719 214.015625 148.765625 L 213.386719 148.78125 C 212.066406 148.792969 211.082031 148.585938 209.828125 148.144531 C 208.902344 148.066406 208.902344 148.066406 207.988281 148.089844 L 207.0625 148.097656 L 206.328125 148.144531 L 206.039062 148.4375 C 205.453125 148.449219 204.871094 148.449219 204.289062 148.4375 L 204.582031 147.855469 C 205.15625 147.546875 205.738281 147.257812 206.328125 146.980469 L 205.453125 146.6875 L 205.164062 147.273438 L 205.164062 146.6875 L 203.996094 146.6875 L 203.996094 146.105469 L 203.519531 146.414062 L 202.886719 146.816406 L 202.261719 147.214844 C 201.667969 147.5625 201.667969 147.5625 200.792969 147.855469 C 200.371094 148.394531 200.371094 148.394531 200.007812 149.039062 L 199.621094 149.6875 L 199.335938 150.183594 L 198.753906 149.894531 C 201.328125 145.945312 204.113281 141.699219 208.371094 139.40625 C 212.425781 137.476562 216.390625 136.722656 220.863281 136.746094 " fill-opacity="1" fill-rule="nonzero"/><path fill="#01392e" d="M 207.496094 157.761719 L 208.953125 157.761719 L 209.25 158.304688 L 209.644531 159.015625 L 210.035156 159.722656 C 210.332031 160.246094 210.65625 160.753906 210.992188 161.257812 C 211.125 162.351562 210.996094 163 210.589844 164.03125 C 210.402344 164.414062 210.210938 164.796875 210.015625 165.179688 L 209.703125 165.816406 C 209.359375 166.503906 209.011719 167.195312 208.664062 167.882812 C 208.425781 168.363281 208.183594 168.84375 207.945312 169.324219 C 207.441406 170.328125 206.9375 171.332031 206.433594 172.332031 C 205.785156 173.621094 205.140625 174.90625 204.5 176.199219 C 204.003906 177.191406 203.507812 178.179688 203.011719 179.167969 C 202.773438 179.644531 202.535156 180.121094 202.296875 180.59375 C 201.96875 181.257812 201.632812 181.921875 201.296875 182.582031 L 201.003906 183.179688 C 200.757812 183.652344 200.488281 184.113281 200.210938 184.566406 L 199.335938 184.855469 C 198.828125 183.882812 198.332031 182.90625 197.839844 181.925781 L 197.40625 181.09375 C 197.019531 180.3125 196.679688 179.570312 196.421875 178.738281 C 196.601562 177.308594 197.164062 176.328125 197.96875 175.152344 C 198.941406 173.679688 199.75 172.175781 200.5 170.582031 L 201.082031 170.582031 L 201.242188 170.046875 C 201.640625 168.789062 202.003906 167.828125 202.832031 166.792969 C 203.042969 166.304688 203.25 165.8125 203.457031 165.324219 C 203.867188 164.390625 204.351562 163.5 204.835938 162.605469 L 205.144531 162.03125 C 205.914062 160.601562 206.699219 159.175781 207.496094 157.761719 " fill-opacity="1" fill-rule="nonzero"/><path fill="#030303" d="M 201.082031 229.433594 C 201.8125 230.339844 202.320312 231.269531 202.824219 232.316406 L 203.324219 233.351562 L 203.851562 234.460938 L 204.398438 235.601562 C 205.554688 238.011719 206.6875 240.429688 207.804688 242.855469 L 208.183594 243.675781 C 208.539062 244.464844 208.894531 245.253906 209.242188 246.042969 L 209.65625 246.976562 C 209.859375 247.441406 209.859375 247.441406 210.0625 247.917969 C 210.183594 248.199219 210.308594 248.480469 210.433594 248.773438 C 210.699219 249.539062 210.699219 249.539062 210.699219 250.703125 L 204.871094 250.703125 C 204.191406 249.382812 203.523438 248.074219 202.960938 246.699219 L 202.730469 246.140625 C 202.511719 245.605469 202.296875 245.066406 202.082031 244.53125 L 201.667969 243.710938 C 200.722656 243.398438 200.039062 243.386719 199.050781 243.390625 L 198.023438 243.394531 L 196.949219 243.402344 L 195.867188 243.40625 C 194.980469 243.410156 194.097656 243.414062 193.214844 243.421875 L 192.921875 242.835938 C 193.246094 242.101562 193.246094 242.101562 193.726562 241.234375 L 194.195312 240.371094 C 194.671875 239.632812 194.671875 239.632812 195.546875 239.050781 C 196.523438 238.992188 196.523438 238.992188 197.640625 239.011719 L 198.765625 239.03125 L 199.625 239.050781 L 199.917969 238.46875 L 200.792969 238.757812 L 200.792969 239.339844 L 201.375 239.339844 L 201.375 237.59375 L 201.957031 237.59375 L 202.214844 237.027344 L 202.539062 236.425781 L 203.125 236.136719 L 203.707031 236.425781 L 203.707031 235.84375 L 202.25 235.84375 L 202.25 234.386719 L 201.957031 234.386719 L 201.738281 233.441406 C 201.464844 232.34375 201.464844 232.34375 200.738281 231.710938 L 200.210938 231.183594 C 200.28125 230.527344 200.28125 230.527344 200.5 230.019531 L 201.082031 230.019531 Z M 201.082031 229.433594 " fill-opacity="1" fill-rule="nonzero"/><path fill="#00f1c4" d="M 189.425781 168.539062 L 190.59375 169.125 L 190.59375 170.289062 L 191.265625 170.363281 L 192.050781 170.582031 L 192.425781 171.152344 L 192.921875 171.746094 C 193.761719 172.035156 193.761719 172.035156 194.691406 172.148438 L 195.628906 172.300781 L 196.421875 172.328125 L 197.003906 171.746094 L 197.296875 172.328125 L 197.878906 172.328125 L 198.167969 171.453125 L 198.753906 171.164062 C 199.0625 171.636719 199.0625 171.636719 199.335938 172.328125 C 199.335938 173.113281 199.335938 173.113281 199.042969 174.078125 C 198.632812 174.761719 198.191406 175.410156 197.730469 176.0625 C 197.207031 176.828125 196.808594 177.605469 196.421875 178.445312 L 195.839844 178.445312 L 195.636719 179.03125 C 195.136719 180.175781 194.476562 181.191406 193.796875 182.234375 C 193.628906 181.675781 193.628906 181.675781 193.507812 181.070312 C 193.792969 180.773438 194.082031 180.480469 194.378906 180.195312 C 194.714844 179.527344 194.980469 178.851562 195.253906 178.15625 L 194.671875 178.445312 L 193.796875 178.15625 L 193.796875 178.738281 L 192.921875 178.738281 L 192.921875 179.320312 C 191.46875 179.667969 190.085938 179.621094 188.597656 179.59375 C 187.699219 179.585938 187.699219 179.585938 186.929688 179.765625 C 186.128906 179.921875 185.480469 179.875 184.671875 179.777344 L 183.894531 179.6875 L 183.304688 179.613281 L 183.304688 180.488281 C 183.015625 180.777344 183.015625 180.777344 182.140625 181.070312 C 181.785156 181.800781 181.785156 181.800781 181.558594 182.527344 L 181.265625 181.945312 C 181.585938 181.191406 181.585938 181.191406 182.078125 180.246094 L 182.34375 179.738281 C 182.53125 179.378906 182.71875 179.023438 182.90625 178.667969 C 183.191406 178.128906 183.472656 177.589844 183.753906 177.050781 C 185.65625 173.40625 185.65625 173.40625 186.804688 171.746094 L 187.386719 171.746094 L 187.386719 171.164062 L 187.914062 171 C 188.570312 170.640625 188.570312 170.640625 188.824219 170.085938 C 189.039062 169.578125 189.234375 169.058594 189.425781 168.539062 " fill-opacity="1" fill-rule="nonzero"/><path fill="#00f258" d="M 186.019531 135.890625 L 186.675781 135.894531 C 187.203125 135.898438 187.730469 135.902344 188.261719 135.910156 L 188.261719 136.492188 L 197.585938 136.492188 L 197.585938 137.367188 L 197.878906 137.65625 C 197.851562 138.148438 197.808594 138.640625 197.75 139.132812 L 197.660156 139.945312 L 197.585938 140.570312 L 196.421875 140.863281 L 196.128906 142.027344 L 195.253906 142.027344 L 194.671875 143.777344 L 193.796875 143.777344 L 193.507812 144.648438 L 193.214844 142.320312 L 190.59375 142.320312 C 190.160156 142.359375 189.730469 142.398438 189.300781 142.445312 C 189.070312 142.46875 188.84375 142.492188 188.609375 142.519531 C 187.917969 142.597656 187.917969 142.597656 187.09375 142.902344 L 187.09375 143.777344 L 185.929688 144.066406 L 185.929688 143.191406 L 183.304688 143.191406 L 182.722656 144.359375 L 182.140625 144.648438 L 181.265625 144.066406 C 181.210938 143.15625 181.210938 143.15625 181.265625 142.320312 L 182.140625 142.609375 L 182.140625 143.484375 L 182.722656 143.777344 L 182.722656 141.445312 L 181.648438 141.316406 C 180.734375 141.203125 179.835938 141.058594 178.933594 140.863281 L 178.933594 140.277344 L 180.390625 139.695312 L 180.101562 138.824219 L 180.792969 138.167969 C 181.566406 137.449219 181.566406 137.449219 181.847656 136.710938 L 182.140625 136.199219 C 183.414062 135.824219 184.707031 135.875 186.019531 135.890625 " fill-opacity="1" fill-rule="nonzero"/><path fill="#030304" d="M 111.03125 234.972656 C 111.703125 235.8125 112.191406 236.648438 112.65625 237.617188 L 113.078125 238.503906 L 113.527344 239.449219 L 113.992188 240.421875 C 115.03125 242.617188 116.0625 244.820312 117.078125 247.027344 L 117.460938 247.84375 L 117.804688 248.597656 L 118.105469 249.257812 C 118.316406 249.832031 118.316406 249.832031 118.316406 250.703125 C 117.730469 250.761719 117.140625 250.816406 116.550781 250.867188 L 115.558594 250.960938 C 113.570312 251.027344 113.570312 251.027344 112.488281 250.703125 C 111.925781 250.039062 111.609375 249.300781 111.269531 248.5 L 110.988281 247.890625 C 110.804688 247.484375 110.621094 247.074219 110.441406 246.664062 C 110.058594 245.824219 109.636719 245.007812 109.207031 244.191406 C 108.992188 243.710938 108.992188 243.710938 108.992188 243.128906 L 108.355469 243.347656 L 107.535156 243.421875 C 107.042969 243.039062 106.554688 242.652344 106.078125 242.253906 C 105.230469 241.941406 105.230469 241.941406 104.328125 241.964844 C 103.375 242.347656 102.726562 242.691406 101.996094 243.421875 L 101.125 243.421875 C 101.289062 242.292969 101.605469 241.527344 102.234375 240.578125 L 102.675781 239.890625 C 103.164062 239.339844 103.164062 239.339844 103.710938 239.121094 C 104.429688 239.039062 105.132812 239.023438 105.859375 239.03125 L 106.648438 239.039062 L 107.242188 239.050781 L 106.660156 237.59375 L 107.535156 237.300781 L 107.535156 235.84375 L 108.117188 235.84375 L 108.410156 237.011719 L 110.449219 236.71875 L 110.449219 235.261719 Z M 111.03125 234.972656 " fill-opacity="1" fill-rule="nonzero"/><path fill="#00a561" d="M 167.859375 160.089844 C 168.023438 160.632812 168.023438 160.632812 168.152344 161.257812 C 167.863281 161.945312 167.863281 161.945312 167.441406 162.640625 L 167.023438 163.347656 L 166.695312 163.878906 L 167.570312 163.878906 L 167.859375 163.003906 L 167.859375 164.753906 L 169.027344 164.753906 L 169.433594 165.179688 L 169.902344 165.628906 C 173.519531 166.375 177.589844 165.945312 181.265625 165.917969 L 183.597656 165.917969 L 184.179688 164.171875 L 185.636719 163.878906 C 185.3125 164.894531 184.976562 165.851562 184.472656 166.792969 L 183.890625 166.792969 L 182.722656 169.125 L 182.140625 169.125 L 181.265625 171.746094 C 179.664062 172.125 178.214844 171.953125 176.605469 171.746094 L 176.605469 170.871094 L 175.984375 170.882812 C 175.054688 170.894531 174.125 170.902344 173.199219 170.910156 L 172.222656 170.921875 L 171.28125 170.929688 L 170.417969 170.9375 C 169.558594 170.867188 168.941406 170.621094 168.152344 170.289062 C 167.664062 170.378906 167.179688 170.476562 166.695312 170.582031 C 166.015625 170.484375 165.335938 170.386719 164.65625 170.289062 C 163.976562 170.390625 163.976562 170.390625 163.488281 170.582031 L 163.78125 168.832031 L 164.363281 168.832031 L 164.316406 168.066406 C 164.371094 166.96875 164.628906 166.355469 165.128906 165.382812 L 165.605469 164.445312 L 166.113281 163.480469 L 166.617188 162.492188 C 167.027344 161.691406 167.445312 160.890625 167.859375 160.089844 " fill-opacity="1" fill-rule="nonzero"/><path fill="#006f51" d="M 160.285156 175.242188 L 160.574219 175.824219 L 160.285156 176.679688 L 159.992188 177.574219 L 160.285156 178.445312 L 159.699219 178.445312 L 159.699219 179.320312 L 160.554688 179.316406 C 161.617188 179.3125 162.679688 179.308594 163.742188 179.304688 C 164.199219 179.304688 164.65625 179.300781 165.113281 179.300781 C 167.792969 179.285156 170.4375 179.324219 173.105469 179.613281 L 173.398438 180.488281 L 174.015625 180.324219 C 174.953125 180.179688 175.679688 180.292969 176.605469 180.488281 L 176.605469 179.613281 L 177.1875 179.613281 L 177.476562 177.863281 L 178.351562 178.15625 L 178.121094 178.585938 C 177.773438 179.238281 177.425781 179.890625 177.078125 180.542969 L 176.714844 181.21875 C 176.597656 181.4375 176.480469 181.65625 176.359375 181.882812 L 176.035156 182.488281 C 175.703125 183.164062 175.425781 183.867188 175.148438 184.566406 L 156.203125 184.855469 L 155.914062 183.691406 C 156.214844 182.898438 156.554688 182.121094 156.933594 181.359375 L 157.253906 180.699219 C 158.171875 178.824219 159.1875 177.019531 160.285156 175.242188 " fill-opacity="1" fill-rule="nonzero"/><path fill="#00d762" d="M 173.398438 150.476562 L 174.273438 150.769531 L 174.273438 151.351562 L 183.304688 151.640625 L 183.597656 152.515625 L 183.597656 151.640625 L 184.671875 151.605469 L 185.277344 151.585938 C 186.097656 151.65625 186.660156 151.832031 187.386719 152.226562 C 188.066406 153.289062 188.484375 154.527344 188.625 155.785156 C 188.625 156.339844 188.625 156.339844 188.550781 157.179688 L 188.261719 156.59375 L 187.269531 157.027344 C 185.867188 157.554688 184.59375 157.578125 183.105469 157.542969 L 182.375 157.539062 C 181.183594 157.523438 180.105469 157.414062 178.933594 157.179688 C 178.125 157.15625 177.324219 157.148438 176.511719 157.160156 L 175.859375 157.164062 C 175.328125 157.167969 174.800781 157.171875 174.273438 157.179688 L 174.273438 158.050781 C 173.640625 157.90625 173.105469 157.761719 172.523438 157.46875 L 172.523438 156.886719 L 170.773438 157.179688 L 170.773438 155.136719 L 171.359375 155.136719 L 171.359375 154.554688 L 172.230469 154.554688 L 172.050781 153.464844 C 171.957031 152.695312 171.925781 152.277344 172.160156 151.53125 C 172.523438 151.058594 172.523438 151.058594 173.398438 150.476562 " fill-opacity="1" fill-rule="nonzero"/><path fill="#00a48c" d="M 220.863281 136.746094 L 221.632812 136.75 C 223.441406 136.761719 225.226562 136.84375 227.019531 137.074219 L 227.019531 137.65625 L 226.519531 137.914062 C 223.992188 139.253906 222.453125 140.601562 220.917969 143.011719 C 220.519531 143.652344 220.125 144.292969 219.734375 144.941406 L 219.445312 144.359375 C 219.796875 143.664062 219.796875 143.664062 220.300781 142.863281 L 220.800781 142.0625 L 221.191406 141.445312 L 220.609375 141.445312 L 220.609375 140.863281 L 220.027344 140.863281 L 219.734375 142.320312 L 218.570312 142.609375 L 218.570312 141.734375 L 217.695312 142.320312 C 216.910156 142.355469 216.910156 142.355469 216.238281 142.320312 L 215.945312 142.902344 L 215.070312 141.445312 L 214.488281 141.734375 C 213.992188 141.753906 213.492188 141.761719 212.996094 141.753906 L 212.191406 141.746094 L 211.574219 141.734375 L 211.574219 142.320312 L 210.699219 142.902344 C 209.808594 142.9375 209.808594 142.9375 208.789062 142.902344 C 207.792969 142.851562 207.792969 142.851562 206.914062 142.902344 L 206.328125 143.484375 L 206.039062 142.902344 L 205.164062 142.902344 L 205.164062 143.484375 L 204.582031 143.484375 L 204.289062 144.066406 L 203.707031 144.066406 C 203.207031 144.539062 202.722656 145.027344 202.25 145.523438 C 203.34375 143.164062 205.3125 141.523438 207.382812 140.019531 C 211.480469 137.464844 216.105469 136.722656 220.863281 136.746094 " fill-opacity="1" fill-rule="nonzero"/><path fill="#007e55" d="M 183.597656 166.5 L 184.179688 166.792969 C 183.695312 168.566406 182.792969 170.09375 181.902344 171.691406 L 181.445312 172.527344 C 181.140625 173.074219 180.839844 173.617188 180.535156 174.164062 C 180.25 174.679688 179.972656 175.203125 179.703125 175.730469 L 179.332031 176.449219 L 179.011719 177.085938 L 178.644531 177.574219 C 178.019531 177.789062 178.019531 177.789062 177.476562 177.863281 L 177.1875 179.613281 L 176.605469 179.613281 L 176.605469 180.488281 L 173.398438 180.488281 L 173.105469 179.902344 C 168.441406 179.601562 163.792969 179.578125 159.117188 179.613281 C 159.226562 179.046875 159.226562 179.046875 159.410156 178.445312 L 159.992188 178.15625 L 159.808594 177.683594 C 159.660156 176.71875 159.9375 176.15625 160.285156 175.242188 C 160.652344 174.429688 161.046875 173.632812 161.449219 172.839844 L 161.761719 172.203125 C 162.542969 170.65625 162.542969 170.65625 163.199219 169.996094 C 162.992188 170.863281 162.738281 171.703125 162.453125 172.546875 L 162.214844 173.253906 L 162.03125 173.785156 L 161.449219 173.785156 L 161.46875 174.605469 C 161.449219 175.535156 161.449219 175.535156 161.15625 176.40625 L 162.324219 176.40625 L 162.613281 175.535156 L 164.65625 175.824219 L 164.65625 174.949219 L 168.152344 174.949219 L 168.734375 176.40625 L 169.542969 176.378906 L 170.59375 176.351562 L 171.636719 176.324219 L 172.523438 176.40625 L 173.105469 177.28125 C 173.707031 177.492188 173.707031 177.492188 174.273438 177.574219 L 174.273438 175.242188 C 175.960938 175.183594 177.3125 175.359375 178.933594 175.824219 L 178.84375 175.167969 L 178.933594 174.367188 L 179.589844 173.894531 C 180.484375 173.125 180.648438 172.675781 181.03125 171.582031 L 181.296875 170.742188 C 181.558594 169.996094 181.558594 169.996094 182.140625 169.125 L 182.722656 169.125 Z M 183.597656 166.5 " fill-opacity="1" fill-rule="nonzero"/><path fill="#45febf" d="M 194.964844 177.863281 L 195.546875 178.445312 L 195.257812 178.863281 L 194.871094 179.449219 L 194.492188 180.011719 C 194.136719 180.6875 193.910156 181.289062 193.683594 182.015625 C 193.238281 183.398438 192.632812 184.636719 191.941406 185.914062 L 191.609375 186.542969 C 190.878906 187.90625 190.058594 189.148438 189.136719 190.394531 L 188.84375 189.808594 C 189.128906 189.226562 189.421875 188.640625 189.71875 188.0625 L 189.71875 187.1875 L 189.136719 186.898438 L 189.425781 185.441406 L 190.882812 185.441406 L 190.882812 186.023438 L 191.464844 186.023438 C 191.289062 185.433594 191.097656 184.851562 190.882812 184.273438 L 190.300781 183.984375 C 189.882812 184.15625 189.46875 184.347656 189.0625 184.546875 C 187.167969 185.355469 185.332031 185.253906 183.304688 185.148438 L 183.304688 186.023438 L 182.722656 186.023438 L 182.722656 185.148438 L 180.976562 184.566406 L 180.683594 185.148438 L 180.101562 184.855469 L 179.808594 186.605469 L 179.226562 186.605469 L 178.933594 187.480469 L 178.644531 186.898438 C 178.980469 186.160156 179.347656 185.4375 179.738281 184.730469 C 179.839844 184.53125 179.945312 184.332031 180.054688 184.128906 C 180.578125 183.160156 181.0625 182.421875 181.847656 181.652344 C 182.148438 181.171875 182.4375 180.683594 182.722656 180.195312 L 183.597656 179.320312 C 184.304688 179.339844 184.304688 179.339844 185.144531 179.449219 C 186.289062 179.597656 187.140625 179.546875 188.261719 179.320312 C 188.828125 179.34375 189.390625 179.386719 189.953125 179.449219 L 190.816406 179.539062 L 191.464844 179.613281 L 191.757812 179.03125 L 192.921875 179.320312 L 192.921875 178.738281 L 192.339844 178.445312 C 193.214844 178.445312 193.214844 178.445312 193.796875 178.738281 L 193.796875 178.15625 C 194.34375 177.972656 194.34375 177.972656 194.964844 177.863281 " fill-opacity="1" fill-rule="nonzero"/><path fill="#013a2e" d="M 207.496094 157.761719 L 208.953125 157.761719 L 209.25 158.304688 L 209.644531 159.015625 L 210.035156 159.722656 C 210.332031 160.246094 210.65625 160.753906 210.992188 161.257812 C 211.125 162.363281 210.996094 162.996094 210.578125 164.039062 C 210.398438 164.394531 210.214844 164.746094 210.027344 165.097656 L 209.753906 165.644531 C 209.398438 166.335938 209.074219 166.964844 208.515625 167.515625 C 207.804688 168.234375 207.4375 169.152344 207.003906 170.050781 L 206.71875 170.628906 C 206.492188 171.097656 206.265625 171.566406 206.039062 172.039062 L 205.164062 171.746094 L 205.164062 171.164062 L 205.746094 171.164062 L 205.746094 170.582031 L 205.164062 170.289062 L 205.164062 169.707031 L 204.855469 170.417969 C 204.667969 170.664062 204.480469 170.910156 204.289062 171.164062 C 203.214844 171.398438 203.214844 171.398438 202.25 171.453125 L 202.25 172.039062 L 201.375 172.328125 L 200.792969 172.910156 L 200.5 172.328125 L 199.917969 172.328125 L 200.5 170.582031 L 201.082031 170.582031 L 201.242188 170.046875 C 201.640625 168.789062 202.003906 167.828125 202.832031 166.792969 C 203.042969 166.304688 203.25 165.8125 203.457031 165.324219 C 203.867188 164.390625 204.351562 163.5 204.835938 162.605469 L 205.144531 162.03125 C 205.914062 160.601562 206.699219 159.175781 207.496094 157.761719 " fill-opacity="1" fill-rule="nonzero"/><path fill="#00b165" d="M 187.386719 158.925781 L 188.261719 159.21875 C 187.917969 159.992188 187.5625 160.761719 187.203125 161.53125 L 186.910156 162.195312 C 186.621094 162.808594 186.347656 163.347656 185.929688 163.878906 C 184.976562 164.171875 184.976562 164.171875 184.179688 164.171875 L 184.054688 164.71875 C 183.890625 165.335938 183.890625 165.335938 183.597656 165.917969 C 183.015625 166.019531 182.433594 166.113281 181.847656 166.210938 L 181.265625 166.792969 L 181.265625 165.917969 L 180.453125 165.953125 C 179.445312 165.996094 178.433594 166.039062 177.425781 166.074219 C 176.992188 166.09375 176.558594 166.109375 176.125 166.128906 C 171.390625 166.339844 171.390625 166.339844 169.316406 165.628906 L 169.027344 164.753906 L 167.859375 164.753906 L 167.570312 163.878906 L 166.695312 163.878906 L 167.277344 162.421875 L 168.445312 162.421875 L 168.445312 163.296875 L 169.027344 163.296875 L 169.027344 162.714844 C 169.914062 162.269531 170.839844 162.308594 171.820312 162.242188 C 172.597656 162.167969 172.597656 162.167969 173.398438 161.546875 C 175.050781 161.394531 176.730469 161.488281 178.351562 161.839844 L 178.351562 162.421875 L 183.597656 162.132812 L 183.890625 161.546875 L 184.472656 163.589844 L 185.347656 163.589844 L 185.347656 163.003906 L 185.929688 163.003906 L 186.222656 160.964844 L 186.804688 160.964844 Z M 187.386719 158.925781 " fill-opacity="1" fill-rule="nonzero"/><path fill="#00db5a" d="M 176.3125 143.777344 C 176.476562 144.320312 176.476562 144.320312 176.605469 144.941406 L 176.3125 145.523438 L 175.730469 145.523438 L 175.148438 149.019531 L 176.019531 149.019531 L 176.113281 148.382812 C 176.332031 147.484375 176.648438 146.859375 177.1875 146.105469 L 177.769531 146.105469 L 177.476562 149.3125 L 178.644531 149.601562 L 178.933594 150.476562 L 179.863281 150.347656 C 181.996094 150.066406 184.0625 149.816406 186.222656 149.894531 L 186.511719 150.476562 L 187.09375 149.894531 L 188.261719 149.894531 L 188.550781 148.4375 L 190.007812 148.4375 L 190.300781 149.601562 L 190.882812 148.730469 L 191.464844 149.019531 L 191.464844 148.4375 L 193.507812 148.730469 C 193.101562 150.03125 192.605469 151.238281 191.996094 152.460938 L 191.507812 153.46875 L 190.882812 154.265625 C 189.792969 154.523438 189.792969 154.523438 188.84375 154.554688 L 188.84375 155.136719 L 188.261719 155.136719 L 188.035156 154.511719 L 187.734375 153.699219 L 187.433594 152.890625 L 187.09375 152.226562 L 186.222656 151.933594 L 185.929688 152.515625 L 185.929688 151.640625 L 183.597656 151.640625 L 183.597656 152.515625 L 183.015625 152.226562 L 183.304688 151.640625 L 174.273438 151.640625 L 173.980469 150.769531 L 172.816406 151.058594 C 173.289062 149.398438 174.078125 147.949219 174.890625 146.433594 L 175.304688 145.65625 C 175.640625 145.03125 175.976562 144.402344 176.3125 143.777344 " fill-opacity="1" fill-rule="nonzero"/><path fill="#01e952" d="M 193.398438 134.523438 C 194.132812 134.542969 194.871094 134.558594 195.609375 134.574219 C 196.082031 134.585938 196.554688 134.597656 197.023438 134.613281 L 197.6875 134.625 C 198.238281 134.644531 198.789062 134.691406 199.335938 134.742188 L 200.210938 135.324219 C 200.074219 136.921875 199.640625 138.035156 198.808594 139.40625 C 197.601562 141.460938 196.480469 143.554688 195.382812 145.667969 L 194.910156 146.582031 C 194.539062 147.296875 194.167969 148.011719 193.796875 148.730469 C 193.507812 147.855469 193.507812 147.855469 193.507812 146.6875 L 194.378906 146.6875 L 194.378906 145.816406 L 193.507812 145.816406 L 193.796875 143.777344 L 194.671875 143.777344 L 194.964844 141.734375 L 196.128906 142.027344 L 196.421875 140.863281 L 197.585938 140.570312 L 197.585938 137.65625 L 197.003906 137.65625 L 197.296875 136.78125 L 188.261719 136.492188 L 188.261719 135.910156 C 187.515625 135.949219 186.765625 135.992188 186.019531 136.035156 L 185.382812 136.070312 C 183.738281 136.144531 183.738281 136.144531 182.140625 136.492188 C 181.742188 136.933594 181.742188 136.933594 181.503906 137.492188 C 180.976562 138.53125 180.976562 138.53125 180.390625 139.113281 L 180.976562 139.695312 C 180.203125 140.121094 179.839844 140.277344 178.933594 140.277344 L 178.933594 140.863281 L 180.390625 140.570312 L 180.390625 141.152344 L 182.722656 141.445312 C 183.015625 142.320312 183.015625 142.320312 182.886719 143.101562 L 182.722656 143.777344 L 181.847656 143.484375 L 181.847656 142.609375 L 181.265625 142.320312 L 181.265625 141.734375 L 180.101562 141.734375 L 180.101562 141.152344 L 178.0625 141.445312 C 178.492188 139.664062 179.121094 138.355469 180.382812 137.015625 C 181.660156 135.890625 183.101562 135.101562 184.761719 134.742188 C 187.636719 134.375 190.507812 134.4375 193.398438 134.523438 " fill-opacity="1" fill-rule="nonzero"/><path fill="#00e45c" d="M 182.140625 145.230469 L 183.015625 145.816406 L 183.597656 147.273438 L 188.261719 146.980469 L 188.261719 146.105469 C 192.234375 145.664062 192.234375 145.664062 194.089844 146.398438 L 193.507812 146.6875 L 193.671875 147.21875 C 193.796875 147.855469 193.796875 147.855469 193.507812 148.730469 L 192.632812 149.019531 C 191.996094 148.746094 191.996094 148.746094 191.464844 148.4375 L 191.464844 149.019531 L 190.882812 149.019531 L 190.300781 149.894531 L 190.007812 148.4375 L 188.550781 148.730469 L 188.496094 149.273438 L 188.261719 149.894531 C 187.550781 150.238281 187.550781 150.238281 186.804688 150.476562 L 186.222656 150.769531 L 186.222656 149.894531 L 178.644531 150.769531 L 178.351562 149.601562 L 177.476562 149.3125 C 177.441406 147.089844 177.441406 147.089844 177.769531 146.105469 L 177.1875 145.816406 C 177.734375 145.652344 177.734375 145.652344 178.351562 145.523438 L 178.933594 145.816406 C 180.105469 145.878906 180.105469 145.878906 181.265625 145.816406 Z M 182.140625 145.230469 " fill-opacity="1" fill-rule="nonzero"/><path fill="#009d5e" d="M 185.347656 163.878906 L 185.636719 164.460938 C 185.410156 165.027344 185.410156 165.027344 185.074219 165.664062 L 184.738281 166.304688 L 184.472656 166.792969 L 183.890625 166.792969 L 182.722656 169.125 L 182.140625 169.125 L 181.265625 171.746094 C 179.664062 172.125 178.214844 171.953125 176.605469 171.746094 L 176.605469 170.871094 C 176.398438 170.875 176.195312 170.878906 175.984375 170.882812 C 175.054688 170.894531 174.125 170.902344 173.199219 170.910156 L 172.222656 170.921875 L 171.28125 170.929688 L 170.417969 170.9375 C 169.558594 170.867188 168.941406 170.621094 168.152344 170.289062 C 167.664062 170.378906 167.179688 170.476562 166.695312 170.582031 C 166.015625 170.484375 165.335938 170.386719 164.65625 170.289062 C 163.976562 170.390625 163.976562 170.390625 163.488281 170.582031 L 163.78125 168.832031 L 164.945312 168.832031 L 164.945312 169.414062 L 165.820312 169.414062 L 165.820312 168.832031 L 168.445312 169.125 L 169.027344 167.957031 L 169.609375 168.25 C 170.089844 168.289062 170.566406 168.316406 171.046875 168.332031 L 171.910156 168.363281 L 172.816406 168.394531 C 173.402344 168.414062 173.992188 168.4375 174.582031 168.460938 L 175.375 168.484375 C 176.019531 168.539062 176.019531 168.539062 176.605469 168.832031 C 177.1875 168.84375 177.769531 168.84375 178.351562 168.832031 L 178.351562 169.414062 L 178.933594 169.125 C 179.261719 168.644531 179.261719 168.644531 179.554688 168.085938 L 180.101562 167.085938 L 180.683594 167.375 L 180.683594 169.996094 L 181.558594 169.414062 C 181.628906 168.371094 181.628906 168.371094 181.558594 167.375 L 182.140625 167.085938 L 182.722656 167.375 L 182.722656 165.917969 L 183.597656 165.917969 L 183.816406 165.0625 L 184.179688 164.171875 C 184.800781 163.914062 184.800781 163.914062 185.347656 163.878906 " fill-opacity="1" fill-rule="nonzero"/><path fill="#00be66" d="M 182.140625 157.761719 L 183.597656 157.761719 L 183.597656 159.507812 L 184.179688 159.507812 L 184.179688 160.089844 L 185.054688 160.089844 L 185.308594 159.398438 C 185.636719 158.636719 185.636719 158.636719 186.222656 158.050781 L 186.804688 158.34375 L 186.804688 160.089844 L 186.222656 160.382812 C 185.566406 161.382812 185.480469 162.417969 185.347656 163.589844 L 184.472656 163.589844 L 183.890625 161.839844 L 183.597656 162.132812 C 181.839844 162.417969 180.128906 162.457031 178.351562 162.421875 L 178.351562 161.839844 C 177.542969 161.824219 176.738281 161.8125 175.929688 161.804688 L 175.234375 161.789062 L 174.566406 161.78125 L 173.953125 161.773438 C 173.300781 161.808594 173.300781 161.808594 172.523438 162.421875 C 171.671875 162.542969 171.671875 162.542969 170.71875 162.605469 L 169.761719 162.671875 L 169.027344 162.714844 L 169.027344 163.296875 L 168.445312 163.296875 L 168.445312 162.421875 L 167.570312 162.132812 C 167.644531 161.699219 167.722656 161.269531 167.804688 160.839844 L 167.941406 160.109375 L 168.152344 159.507812 L 169.027344 159.21875 L 169.609375 159.507812 L 169.609375 160.382812 C 172.347656 160.414062 175.042969 160.382812 177.769531 160.089844 L 178.0625 159.21875 L 178.351562 160.089844 L 178.933594 160.089844 L 178.933594 159.507812 L 181.558594 159.507812 Z M 182.140625 157.761719 " fill-opacity="1" fill-rule="nonzero"/><path fill="#00674b" d="M 177.476562 177.863281 L 178.351562 178.15625 L 178.121094 178.585938 C 177.773438 179.238281 177.425781 179.890625 177.078125 180.542969 L 176.714844 181.21875 C 176.597656 181.4375 176.480469 181.65625 176.359375 181.882812 L 176.035156 182.488281 C 175.703125 183.164062 175.425781 183.867188 175.148438 184.566406 L 156.203125 184.855469 L 155.914062 183.691406 C 156.203125 182.941406 156.203125 182.941406 156.621094 182.160156 L 157.039062 181.375 L 157.371094 180.777344 C 157.660156 181.652344 157.660156 181.652344 157.753906 182.253906 L 157.953125 182.816406 C 158.53125 183.191406 158.53125 183.191406 159.117188 183.398438 L 159.117188 182.816406 L 159.699219 182.234375 C 160.613281 182.164062 160.613281 182.164062 161.777344 182.167969 L 162.398438 182.167969 C 162.832031 182.167969 163.265625 182.171875 163.695312 182.175781 C 164.359375 182.179688 165.023438 182.179688 165.6875 182.179688 C 168.941406 182.191406 168.941406 182.191406 169.609375 182.527344 C 170.339844 182.539062 171.066406 182.539062 171.796875 182.527344 C 173.902344 182.488281 173.902344 182.488281 174.5625 182.816406 L 174.855469 181.359375 L 175.730469 181.070312 L 176.019531 180.488281 L 176.605469 180.488281 L 176.605469 179.613281 L 177.1875 179.613281 Z M 177.476562 177.863281 " fill-opacity="1" fill-rule="nonzero"/><path fill="#7effad" d="M 178.644531 189.226562 L 179.519531 189.226562 L 179.519531 190.101562 L 180.027344 189.917969 L 180.683594 189.808594 C 181.078125 189.996094 181.464844 190.1875 181.847656 190.394531 L 183.015625 190.394531 L 182.722656 192.140625 L 184.472656 191.851562 L 184.472656 191.265625 L 186.511719 190.683594 L 186.511719 191.265625 L 187.386719 191.265625 L 187.386719 191.851562 L 185.347656 192.433594 L 185.347656 193.597656 L 184.761719 193.597656 L 184.472656 195.054688 L 183.015625 195.054688 L 183.015625 195.636719 L 182.011719 195.890625 L 180.976562 196.21875 L 180.683594 196.804688 L 178.933594 196.804688 L 178.933594 196.21875 L 179.519531 195.929688 L 179.136719 195.320312 L 178.644531 194.527344 L 178.152344 193.738281 C 177.769531 193.015625 177.769531 193.015625 177.769531 192.140625 L 176.894531 191.851562 C 177.164062 191.160156 177.457031 190.480469 177.769531 189.808594 Z M 178.644531 189.226562 " fill-opacity="1" fill-rule="nonzero"/><path fill="#59fe9f" d="M 178.351562 187.480469 L 178.933594 188.0625 C 179.539062 188.25 179.539062 188.25 180.101562 188.351562 L 179.519531 189.519531 L 178.644531 189.226562 L 178.351562 189.808594 L 177.769531 190.101562 C 177.558594 190.679688 177.363281 191.261719 177.1875 191.851562 L 177.769531 192.140625 L 177.769531 192.722656 L 178.351562 193.015625 L 178.351562 193.597656 C 178.582031 194.054688 178.828125 194.503906 179.082031 194.945312 L 179.492188 195.667969 L 179.808594 196.21875 L 178.933594 196.21875 L 178.933594 196.804688 L 180.683594 196.511719 L 180.683594 195.929688 C 181.472656 195.535156 182.144531 195.617188 183.015625 195.636719 L 183.015625 195.054688 L 184.472656 195.054688 C 183.390625 196.382812 181.945312 197.039062 180.390625 197.675781 C 178.027344 198.445312 175.5625 198.320312 173.105469 198.257812 L 172.816406 197.675781 C 173.160156 196.925781 173.527344 196.1875 173.925781 195.464844 L 174.277344 194.800781 C 174.648438 194.101562 175.023438 193.402344 175.402344 192.707031 L 176.15625 191.289062 C 176.394531 190.839844 176.632812 190.394531 176.875 189.945312 L 177.21875 189.300781 C 178.027344 187.804688 178.027344 187.804688 178.351562 187.480469 " fill-opacity="1" fill-rule="nonzero"/><path fill="#002620" d="M 171.359375 190.394531 L 171.648438 190.976562 C 171.304688 191.710938 170.933594 192.433594 170.539062 193.144531 L 170.210938 193.746094 C 169.746094 194.597656 169.273438 195.410156 168.734375 196.21875 C 168.585938 197.203125 168.609375 198.148438 168.734375 199.132812 C 168.996094 199.773438 168.996094 199.773438 169.335938 200.355469 C 169.785156 201.164062 169.902344 201.484375 169.957031 202.449219 C 169.246094 204.609375 167.828125 206.246094 166.203125 207.800781 C 163.917969 209.765625 161.179688 211.011719 158.242188 211.664062 C 156.53125 211.964844 154.871094 211.992188 153.136719 211.980469 L 152.261719 211.980469 C 151.347656 211.980469 150.433594 211.976562 149.519531 211.972656 C 148.894531 211.96875 148.273438 211.96875 147.652344 211.96875 C 146.128906 211.964844 144.609375 211.960938 143.089844 211.953125 L 143.089844 211.664062 L 144.171875 211.648438 C 145.515625 211.632812 146.859375 211.609375 148.203125 211.585938 C 148.78125 211.574219 149.359375 211.566406 149.9375 211.5625 C 153.390625 211.519531 156.632812 211.347656 159.992188 210.496094 L 159.992188 209.621094 L 160.8125 209.640625 C 161.746094 209.667969 161.746094 209.667969 162.613281 209.332031 L 162.90625 208.75 L 164.070312 208.457031 L 164.363281 207.875 L 163.488281 208.164062 L 163.488281 207.582031 L 164.023438 207.507812 C 164.742188 207.378906 165.417969 207.234375 166.113281 207 C 166.90625 206.226562 167.222656 205.714844 167.570312 204.667969 L 168.152344 204.960938 L 168.152344 204.085938 L 168.734375 204.085938 L 169.316406 202.628906 L 168.734375 202.628906 L 168.445312 203.210938 L 168.445312 202.628906 L 167.859375 202.628906 L 167.859375 201.757812 L 167.277344 201.757812 L 167.421875 201.0625 C 167.65625 199.371094 167.796875 197.578125 167.277344 195.929688 L 166.988281 195.636719 L 166.402344 199.714844 L 165.53125 199.714844 L 165.820312 197.386719 L 165.238281 197.386719 C 165.019531 196.875 165.019531 196.875 164.945312 196.21875 C 165.457031 195.582031 165.457031 195.582031 166.113281 195.054688 L 166.988281 194.761719 L 166.988281 193.597656 L 167.570312 193.597656 L 167.570312 193.015625 L 168.152344 193.015625 L 168.152344 193.890625 L 168.734375 193.890625 L 168.789062 193.359375 L 169.027344 192.722656 C 169.511719 192.429688 169.996094 192.140625 170.484375 191.851562 C 171.011719 191.101562 171.011719 191.101562 171.359375 190.394531 " fill-opacity="1" fill-rule="nonzero"/><path fill="#00f65f" d="M 186.019531 135.890625 L 186.675781 135.894531 C 187.203125 135.898438 187.730469 135.902344 188.261719 135.910156 L 188.261719 136.492188 L 197.585938 136.492188 L 197.585938 137.367188 L 197.878906 137.65625 C 197.851562 138.148438 197.808594 138.640625 197.75 139.132812 L 197.660156 139.945312 L 197.585938 140.570312 L 196.421875 140.863281 C 196.382812 140.1875 196.382812 140.1875 196.421875 139.40625 L 197.003906 138.53125 L 196.464844 138.535156 C 189.960938 138.585938 189.960938 138.585938 187.386719 138.238281 L 187.386719 137.074219 L 186.820312 137.511719 C 185.625 138.097656 184.613281 138.023438 183.304688 137.949219 L 183.304688 138.53125 L 182.761719 138.621094 L 182.140625 138.824219 L 181.558594 139.695312 L 180.101562 139.113281 L 180.792969 138.3125 C 181.257812 137.765625 181.5625 137.355469 181.847656 136.691406 L 182.140625 136.199219 C 183.414062 135.824219 184.707031 135.875 186.019531 135.890625 " fill-opacity="1" fill-rule="nonzero"/><path fill="#00cd60" d="M 172.523438 151.058594 C 172.6875 151.585938 172.6875 151.585938 172.816406 152.226562 L 172.523438 153.097656 C 172.636719 153.867188 172.636719 153.867188 172.816406 154.554688 L 173.6875 154.847656 L 173.6875 155.429688 L 174.804688 155.425781 C 176.164062 155.421875 177.527344 155.417969 178.886719 155.414062 C 179.476562 155.414062 180.066406 155.410156 180.65625 155.40625 C 181.503906 155.402344 182.347656 155.402344 183.195312 155.402344 L 183.996094 155.398438 L 184.738281 155.398438 L 185.394531 155.394531 C 185.929688 155.429688 185.929688 155.429688 186.511719 155.722656 L 186.511719 155.136719 L 187.386719 155.136719 C 188.023438 155.722656 188.023438 155.722656 188.550781 156.304688 L 188.261719 157.179688 L 188.261719 156.59375 L 187.269531 157.027344 C 185.867188 157.554688 184.59375 157.578125 183.105469 157.542969 L 182.375 157.539062 C 181.183594 157.523438 180.105469 157.414062 178.933594 157.179688 C 178.125 157.15625 177.324219 157.148438 176.511719 157.160156 L 175.859375 157.164062 C 175.328125 157.167969 174.800781 157.171875 174.273438 157.179688 L 174.273438 158.050781 C 173.640625 157.90625 173.105469 157.761719 172.523438 157.46875 L 172.523438 156.886719 L 170.773438 157.179688 L 170.773438 155.136719 L 171.359375 155.136719 L 171.359375 154.554688 L 172.230469 154.554688 L 172.050781 153.464844 C 171.945312 152.648438 171.917969 152.28125 172.214844 151.496094 Z M 172.523438 151.058594 " fill-opacity="1" fill-rule="nonzero"/><path fill="#00937e" d="M 220.863281 136.746094 L 221.632812 136.75 C 223.441406 136.761719 225.226562 136.84375 227.019531 137.074219 L 227.019531 137.65625 L 226.519531 137.914062 C 223.992188 139.253906 222.453125 140.601562 220.917969 143.011719 C 220.519531 143.652344 220.125 144.292969 219.734375 144.941406 L 219.445312 144.359375 C 219.796875 143.664062 219.796875 143.664062 220.300781 142.863281 L 220.800781 142.0625 L 221.191406 141.445312 L 220.609375 141.445312 L 220.609375 140.277344 L 219.445312 139.988281 L 219.445312 139.40625 L 218.570312 139.40625 L 218.570312 138.824219 L 217.988281 138.53125 L 219.152344 138.238281 L 219.152344 137.65625 L 218.535156 137.921875 L 217.730469 138.257812 L 216.933594 138.59375 L 216.238281 138.824219 C 215.65625 138.53125 215.65625 138.53125 215.363281 138.238281 C 214.917969 138.265625 214.476562 138.3125 214.035156 138.367188 L 213.304688 138.457031 L 212.742188 138.53125 L 212.742188 138.824219 L 212.175781 138.929688 L 211.449219 139.078125 L 210.71875 139.21875 L 210.117188 139.40625 L 209.828125 139.988281 C 209.339844 140.214844 209.339844 140.214844 208.734375 140.425781 L 208.101562 140.648438 L 207.496094 140.863281 C 207.007812 141.054688 206.523438 141.25 206.039062 141.445312 C 207.367188 139.832031 209.082031 139.023438 210.992188 138.238281 C 214.277344 137.171875 217.421875 136.726562 220.863281 136.746094 " fill-opacity="1" fill-rule="nonzero"/><path fill="#00231d" d="M 199.625 238.46875 L 200.792969 238.757812 L 201.210938 240.289062 L 201.445312 241.148438 C 201.625 241.808594 201.796875 242.464844 201.957031 243.128906 C 200.964844 243.433594 200.058594 243.453125 199.019531 243.449219 L 197.996094 243.445312 L 196.929688 243.4375 L 195.851562 243.433594 C 194.972656 243.429688 194.09375 243.425781 193.214844 243.421875 L 192.921875 242.835938 C 193.246094 242.101562 193.246094 242.101562 193.726562 241.234375 L 194.195312 240.371094 C 194.671875 239.632812 194.671875 239.632812 195.546875 239.050781 C 196.523438 238.992188 196.523438 238.992188 197.640625 239.011719 L 198.765625 239.03125 L 199.625 239.050781 Z M 199.625 238.46875 " fill-opacity="1" fill-rule="nonzero"/><path fill="#002923" d="M 229.644531 201.171875 C 230.464844 201.992188 230.792969 202.511719 231.273438 203.535156 L 231.691406 204.421875 L 232.121094 205.34375 L 232.96875 207.144531 L 233.363281 207.996094 C 233.652344 208.589844 233.949219 209.179688 234.261719 209.761719 C 234.597656 210.496094 234.597656 210.496094 234.597656 211.664062 C 219.625 212.527344 219.625 212.527344 215.398438 210.496094 C 214.546875 210.042969 214.546875 210.042969 213.90625 209.621094 L 213.613281 209.039062 L 214.488281 209.039062 L 214.488281 209.621094 C 215.117188 209.164062 215.6875 208.71875 216.238281 208.164062 L 216.238281 209.914062 L 217.148438 209.476562 C 218.140625 209.046875 218.941406 208.960938 220.027344 209.039062 L 220.027344 209.914062 L 218.277344 210.496094 C 219.515625 210.796875 220.71875 210.835938 221.984375 210.835938 L 222.632812 210.839844 C 223.082031 210.839844 223.53125 210.84375 223.980469 210.84375 C 224.667969 210.84375 225.351562 210.847656 226.039062 210.855469 C 226.476562 210.855469 226.917969 210.855469 227.355469 210.855469 L 227.972656 210.863281 C 229.21875 210.855469 230.246094 210.699219 231.390625 210.207031 C 231.804688 209.621094 231.804688 209.621094 231.976562 209.039062 L 232.847656 209.039062 L 232.550781 208.335938 L 232.15625 207.402344 L 231.769531 206.480469 C 231.414062 205.59375 231.101562 204.703125 230.808594 203.796875 L 230.226562 203.796875 Z M 229.644531 201.171875 " fill-opacity="1" fill-rule="nonzero"/><path fill="#00bba0" d="M 218.570312 144.941406 C 218.492188 147.261719 217.730469 148.800781 216.53125 150.769531 L 216.238281 150.769531 L 216.238281 148.730469 L 215.277344 148.75 C 214.859375 148.753906 214.4375 148.761719 214.015625 148.765625 L 213.386719 148.78125 C 212.066406 148.792969 211.082031 148.585938 209.828125 148.144531 C 208.902344 148.066406 208.902344 148.066406 207.988281 148.089844 L 207.0625 148.097656 L 206.328125 148.144531 L 206.039062 148.4375 C 205.453125 148.449219 204.871094 148.449219 204.289062 148.4375 L 204.582031 147.855469 C 205.160156 147.554688 205.742188 147.261719 206.328125 146.980469 L 206.621094 146.6875 C 207.304688 146.621094 207.992188 146.570312 208.679688 146.523438 L 209.820312 146.453125 L 210.699219 146.398438 L 210.699219 145.816406 C 211.351562 145.847656 212 145.886719 212.648438 145.925781 C 213.011719 145.945312 213.375 145.964844 213.746094 145.984375 C 214.691406 146.097656 215.382812 146.285156 216.238281 146.6875 L 216.238281 145.230469 C 217.082031 144.992188 217.664062 144.941406 218.570312 144.941406 " fill-opacity="1" fill-rule="nonzero"/><path fill="#00ad95" d="M 220.027344 140.863281 L 220.609375 140.863281 L 220.609375 141.445312 L 221.191406 141.445312 C 220.910156 142.203125 220.617188 142.886719 220.191406 143.574219 C 219.695312 144.425781 219.386719 145.269531 219.078125 146.203125 L 218.859375 146.6875 L 218.277344 146.980469 L 218.570312 144.941406 L 216.820312 144.941406 L 216.820312 143.777344 C 215.859375 143.796875 214.902344 143.832031 213.941406 143.867188 L 213.117188 143.886719 L 212.324219 143.917969 L 211.59375 143.941406 L 210.992188 144.066406 L 210.410156 144.941406 L 209.828125 144.941406 L 209.535156 143.777344 L 206.621094 143.777344 L 206.914062 142.609375 L 207.71875 142.628906 L 208.769531 142.644531 L 209.816406 142.667969 L 210.699219 142.609375 L 211.285156 142.027344 L 211.285156 141.152344 L 211.574219 141.734375 C 212.097656 141.695312 212.621094 141.652344 213.140625 141.609375 L 214.023438 141.535156 C 214.773438 141.488281 214.773438 141.488281 215.363281 141.152344 L 215.945312 142.320312 L 216.480469 142.171875 L 217.183594 141.992188 L 217.882812 141.804688 C 218.570312 141.734375 218.570312 141.734375 219.238281 142.011719 L 219.734375 142.320312 Z M 220.027344 140.863281 " fill-opacity="1" fill-rule="nonzero"/><path fill="#6cfeaa" d="M 184 188.171875 L 185.097656 188.269531 L 185.929688 188.351562 L 185.929688 188.9375 L 187.09375 188.351562 C 187.796875 189.199219 188.375 189.984375 188.84375 190.976562 C 186.15625 194.105469 186.15625 194.105469 184.472656 195.054688 L 184.761719 193.597656 L 185.347656 193.597656 L 185.347656 192.433594 L 186.222656 191.851562 L 187.386719 191.851562 L 187.386719 191.265625 L 186.511719 191.265625 L 186.511719 190.683594 L 185.984375 190.976562 C 185.347656 191.265625 185.347656 191.265625 184.472656 191.265625 L 184.472656 191.851562 L 182.722656 192.140625 L 182.433594 190.976562 L 183.015625 190.976562 L 183.015625 190.394531 L 182.195312 190.574219 L 181.265625 190.683594 L 180.390625 190.101562 C 179.765625 190.191406 179.765625 190.191406 179.226562 190.394531 C 179.554688 189.554688 179.554688 189.554688 180.101562 188.644531 C 181.449219 188.023438 182.535156 188.035156 184 188.171875 " fill-opacity="1" fill-rule="nonzero"/><path fill="#002922" d="M 208.371094 167.085938 L 208.660156 167.667969 C 208.382812 168.375 208.382812 168.375 207.933594 169.28125 L 207.429688 170.300781 L 206.871094 171.410156 L 206.308594 172.542969 C 205.914062 173.332031 205.515625 174.125 205.121094 174.914062 C 204.609375 175.929688 204.105469 176.945312 203.601562 177.960938 C 203.214844 178.742188 202.824219 179.519531 202.433594 180.300781 C 202.246094 180.671875 202.0625 181.046875 201.875 181.421875 C 201.617188 181.945312 201.351562 182.46875 201.089844 182.992188 L 200.636719 183.894531 L 200.210938 184.566406 L 199.335938 184.855469 C 198.984375 184.195312 198.640625 183.535156 198.296875 182.871094 L 197.996094 182.304688 C 197.738281 181.804688 197.515625 181.292969 197.296875 180.777344 L 197.585938 179.902344 L 198.460938 180.488281 C 198.664062 181.261719 198.6875 182.011719 198.753906 182.816406 L 199.335938 182.816406 L 199.335938 183.398438 L 199.917969 183.398438 L 199.917969 182.816406 L 200.5 182.816406 L 200.5 181.359375 L 201.082031 181.359375 L 201.667969 178.738281 L 202.539062 178.738281 L 202.539062 176.992188 L 203.414062 176.699219 C 203.628906 176.113281 203.628906 176.113281 203.707031 175.535156 L 204.289062 175.535156 L 204.582031 174.367188 L 203.996094 174.367188 C 204.179688 173.515625 204.460938 172.804688 204.871094 172.039062 L 202.832031 171.746094 L 202.742188 172.203125 C 202.46875 173.160156 202.070312 174.039062 201.667969 174.949219 L 200.5 174.660156 L 200.5 174.078125 L 199.917969 174.078125 L 199.917969 172.328125 L 200.5 172.328125 L 200.792969 171.746094 L 201.082031 172.328125 L 201.539062 171.765625 C 202.25 171.164062 202.25 171.164062 203.34375 170.945312 L 204.289062 170.871094 L 204.871094 169.414062 L 205.453125 169.707031 C 205.636719 170.453125 205.636719 170.453125 205.746094 171.164062 L 205.164062 171.164062 L 205.164062 171.746094 L 206.039062 171.453125 C 206.417969 170.789062 206.773438 170.109375 207.09375 169.414062 C 208.054688 167.398438 208.054688 167.398438 208.371094 167.085938 " fill-opacity="1" fill-rule="nonzero"/><path fill="#04fcca" d="M 185.347656 176.117188 L 186.222656 176.40625 L 185.929688 176.992188 C 187.214844 177.3125 188.457031 177.304688 189.773438 177.28125 C 191.625 177.265625 193.414062 177.339844 195.253906 177.574219 L 195.253906 176.992188 L 195.839844 176.992188 L 196.128906 178.15625 C 195.457031 178.320312 195.457031 178.320312 194.671875 178.445312 L 193.796875 178.15625 L 193.796875 178.738281 L 192.921875 178.738281 L 192.921875 179.320312 C 191.46875 179.667969 190.085938 179.621094 188.597656 179.59375 C 187.699219 179.585938 187.699219 179.585938 186.917969 179.765625 C 186.164062 179.914062 185.578125 179.878906 184.820312 179.777344 L 184.121094 179.6875 L 183.597656 179.613281 C 183.597656 178.445312 183.597656 178.445312 183.832031 177.898438 C 184.132812 177.394531 184.449219 176.902344 184.761719 176.40625 Z M 185.347656 176.117188 " fill-opacity="1" fill-rule="nonzero"/><path fill="#00d1b4" d="M 203.996094 158.636719 C 204.882812 158.5 205.730469 158.550781 206.621094 158.636719 C 206.46875 160.269531 205.835938 161.453125 205.054688 162.859375 C 204.820312 163.289062 204.589844 163.714844 204.355469 164.144531 L 204.015625 164.761719 C 203.601562 165.527344 203.214844 166.304688 202.832031 167.085938 L 201.082031 170.582031 L 200.792969 170.582031 C 200.769531 169.554688 200.78125 168.652344 201.082031 167.667969 L 201.667969 167.667969 L 201.667969 167.085938 L 200.792969 167.085938 L 201.082031 165.628906 L 202.25 166.210938 L 202.378906 165.390625 C 202.539062 164.460938 202.539062 164.460938 202.832031 163.589844 L 202.25 163.296875 L 203.125 161.839844 L 202.25 161.839844 L 202.25 160.089844 L 203.125 160.089844 L 203.453125 159.363281 Z M 203.996094 158.636719 " fill-opacity="1" fill-rule="nonzero"/><path fill="#005b45" d="M 157.371094 180.777344 C 157.660156 181.652344 157.660156 181.652344 157.753906 182.253906 L 157.953125 182.816406 C 158.65625 183.351562 159.253906 183.421875 160.128906 183.558594 C 161.625 183.734375 163.109375 183.726562 164.609375 183.71875 L 165.5 183.71875 C 166.433594 183.71875 167.367188 183.714844 168.296875 183.710938 C 168.933594 183.707031 169.570312 183.707031 170.203125 183.707031 C 171.753906 183.703125 173.304688 183.699219 174.855469 183.691406 L 175.148438 182.527344 L 175.730469 182.527344 L 176.3125 180.777344 L 176.605469 181.652344 L 175.148438 184.566406 L 156.203125 184.855469 L 155.914062 183.691406 C 156.203125 182.941406 156.203125 182.941406 156.621094 182.160156 L 157.039062 181.375 Z M 157.371094 180.777344 " fill-opacity="1" fill-rule="nonzero"/><path fill="#002b24" d="M 107.535156 239.339844 L 107.828125 241.089844 L 108.410156 241.089844 C 108.523438 241.667969 108.617188 242.253906 108.699219 242.835938 L 108.410156 243.421875 C 107.6875 243.292969 107.277344 243.15625 106.695312 242.691406 C 106.078125 242.207031 106.078125 242.207031 105.238281 242 C 104.300781 241.898438 104.300781 241.898438 103.382812 242.347656 C 102.574219 242.796875 102.574219 242.796875 101.996094 243.421875 L 101.125 243.421875 C 101.289062 242.292969 101.605469 241.527344 102.234375 240.578125 C 102.378906 240.351562 102.527344 240.125 102.675781 239.890625 C 103.164062 239.339844 103.164062 239.339844 103.730469 239.121094 C 105.035156 238.96875 106.277344 238.921875 107.535156 239.339844 " fill-opacity="1" fill-rule="nonzero"/><path fill="#00b45b" d="M 187.386719 158.925781 L 188.261719 159.21875 C 187.917969 159.992188 187.5625 160.761719 187.203125 161.53125 L 186.910156 162.195312 C 186.621094 162.808594 186.347656 163.347656 185.929688 163.878906 C 184.976562 164.171875 184.976562 164.171875 184.179688 164.171875 L 183.890625 165.335938 L 183.597656 164.171875 L 182.761719 164.898438 C 182.289062 165.308594 182.289062 165.308594 181.847656 165.628906 L 181.265625 165.628906 L 181.265625 164.753906 L 180.136719 164.789062 C 179.5 164.808594 179.5 164.808594 178.933594 164.753906 L 178.351562 164.171875 L 178.351562 162.421875 L 183.597656 162.132812 L 183.890625 161.546875 L 184.472656 163.589844 L 185.347656 163.589844 L 185.347656 163.003906 L 185.929688 163.003906 L 186.222656 160.964844 L 186.804688 160.964844 Z M 187.386719 158.925781 " fill-opacity="1" fill-rule="nonzero"/><path fill="#58ffc0" d="M 192.050781 181.652344 L 192.921875 181.945312 C 192.777344 183.027344 192.597656 183.90625 192.050781 184.855469 L 191.464844 184.855469 L 191.464844 183.691406 L 190.71875 184.011719 C 188.132812 185.03125 186.113281 185.339844 183.304688 185.148438 L 183.304688 186.023438 L 182.722656 186.023438 L 182.433594 184.855469 L 183.015625 184.566406 L 183.597656 184.855469 L 183.890625 183.984375 L 184.761719 183.691406 L 185.347656 183.398438 L 183.597656 183.109375 C 184.234375 182.738281 184.6875 182.53125 185.429688 182.480469 L 186.113281 182.507812 C 187.078125 182.558594 187.078125 182.558594 187.96875 182.234375 C 188.953125 182.144531 189.9375 182.085938 190.921875 182.027344 L 191.757812 181.945312 Z M 192.050781 181.652344 " fill-opacity="1" fill-rule="nonzero"/><path fill="#003b30" d="M 155.914062 183.984375 L 156.203125 184.855469 L 157.078125 184.566406 C 157.636719 184.539062 158.195312 184.53125 158.753906 184.53125 L 159.796875 184.53125 L 160.925781 184.539062 L 162.078125 184.539062 C 163.085938 184.539062 164.097656 184.542969 165.109375 184.546875 C 166.140625 184.546875 167.171875 184.550781 168.203125 184.550781 C 170.226562 184.554688 172.25 184.558594 174.273438 184.566406 L 174.273438 185.148438 C 172.890625 185.339844 171.589844 185.441406 170.191406 185.441406 L 169.609375 185.730469 C 168.324219 185.804688 167.035156 185.785156 165.746094 185.785156 L 164.664062 185.796875 L 163.613281 185.796875 L 162.652344 185.800781 C 161.683594 185.726562 160.898438 185.492188 159.992188 185.148438 L 159.992188 185.730469 L 159.117188 185.730469 L 159.117188 185.148438 C 158.089844 185.71875 157.296875 186.324219 156.496094 187.1875 C 156.339844 186.765625 156.1875 186.339844 156.039062 185.914062 L 155.785156 185.195312 L 155.621094 184.566406 Z M 155.914062 183.984375 " fill-opacity="1" fill-rule="nonzero"/><path fill="#00322a" d="M 199.917969 175.535156 L 200.792969 175.824219 L 201.082031 177.863281 L 202.832031 177.863281 L 202.539062 178.738281 L 201.667969 178.738281 L 201.625 179.300781 L 201.558594 180.03125 C 201.535156 180.269531 201.515625 180.511719 201.496094 180.757812 L 201.375 181.359375 L 200.792969 181.652344 C 200.601562 182.242188 200.601562 182.242188 200.5 182.816406 L 199.917969 182.816406 L 199.917969 183.398438 L 199.335938 183.398438 L 199.335938 182.816406 L 198.753906 182.816406 L 198.167969 180.488281 L 197.003906 180.195312 L 196.710938 178.445312 L 198.460938 178.445312 L 198.753906 179.902344 L 199.917969 179.902344 C 200.09375 179.363281 200.09375 179.363281 200.210938 178.738281 L 199.917969 177.863281 L 199.335938 178.15625 C 199.152344 177.480469 199.152344 177.480469 199.042969 176.699219 C 199.625 175.824219 199.625 175.824219 199.917969 175.535156 " fill-opacity="1" fill-rule="nonzero"/><path fill="#39ffcb" d="M 194.964844 177.863281 L 195.546875 178.445312 L 195.25 178.90625 C 194.554688 179.988281 193.925781 181.011719 193.507812 182.234375 L 193.140625 181.671875 L 192.632812 181.070312 C 190.5625 180.347656 188.050781 180.75 185.929688 181.070312 L 185.929688 180.488281 L 183.597656 180.488281 L 183.597656 181.359375 L 183.015625 181.359375 L 183.015625 181.945312 L 182.140625 181.652344 C 182.539062 180.621094 182.824219 180.09375 183.597656 179.320312 C 184.304688 179.339844 184.304688 179.339844 185.144531 179.449219 C 186.289062 179.597656 187.140625 179.546875 188.261719 179.320312 C 188.828125 179.34375 189.390625 179.386719 189.953125 179.449219 L 190.816406 179.539062 L 191.464844 179.613281 L 191.757812 179.03125 L 192.921875 179.320312 L 192.921875 178.738281 L 192.339844 178.445312 C 193.214844 178.445312 193.214844 178.445312 193.796875 178.738281 L 193.796875 178.15625 C 194.34375 177.972656 194.34375 177.972656 194.964844 177.863281 " fill-opacity="1" fill-rule="nonzero"/></svg>